<svg width="19" height="18" viewBox="0 0 19 18" fill="none" xmlns="http://www.w3.org/2000/svg">
<path d="M6.61036 7.72435H2.22697C1.78315 7.72394 1.35762 7.54638 1.04374 7.23064C0.729868 6.9149 0.553283 6.48677 0.552734 6.04018V1.68418C0.553283 1.23758 0.729868 0.809449 1.04374 0.493709C1.35762 0.17797 1.78315 0.000414193 2.22697 0H6.61036C7.05408 0.00055226 7.47948 0.178169 7.79324 0.493893C8.10701 0.809618 8.28352 1.23767 8.28407 1.68418V6.04018C8.28352 6.48668 8.10701 6.91474 7.79324 7.23046C7.47948 7.54618 7.05408 7.7238 6.61036 7.72435ZM2.22697 1.30435C2.12685 1.30449 2.03087 1.34453 1.96003 1.41572C1.88918 1.4869 1.84926 1.58343 1.84898 1.68418V6.04018C1.84926 6.14092 1.88918 6.23745 1.96003 6.30864C2.03087 6.37982 2.12685 6.41987 2.22697 6.42H6.61036C6.71042 6.41987 6.80635 6.3798 6.87711 6.3086C6.94787 6.2374 6.98769 6.14087 6.98782 6.04018V1.68418C6.98769 1.58348 6.94787 1.48695 6.87711 1.41575C6.80635 1.34455 6.71042 1.30449 6.61036 1.30435H2.22697Z" fill="#E2EBF2"/>
<path d="M6.6316 18H2.24821C1.80434 17.9994 1.37881 17.8218 1.06495 17.5059C0.751092 17.1901 0.574523 16.7619 0.573975 16.3153V11.9598C0.574524 11.5132 0.751108 11.0851 1.06498 10.7693C1.37886 10.4536 1.80439 10.276 2.24821 10.2756H6.6316C7.07514 10.2765 7.50028 10.4542 7.81382 10.7699C8.12735 11.0856 8.30373 11.5135 8.30427 11.9598V16.3153C8.30386 16.7617 8.12755 17.1897 7.814 17.5055C7.50044 17.8213 7.07523 17.9992 6.6316 18ZM2.24821 11.58C2.14809 11.5801 2.05211 11.6202 1.98127 11.6914C1.91042 11.7625 1.8705 11.8591 1.87022 11.9598V16.3153C1.87036 16.4161 1.91023 16.5128 1.98108 16.5841C2.05194 16.6554 2.148 16.6955 2.24821 16.6956H6.6316C6.73171 16.6954 6.82764 16.6552 6.89839 16.5839C6.96913 16.5126 7.00893 16.416 7.00906 16.3153V11.9598C7.00893 11.8591 6.96911 11.7626 6.89835 11.6914C6.8276 11.6202 6.73166 11.5801 6.6316 11.58H2.24821Z" fill="#E2EBF2"/>
<path d="M16.7673 18H12.3839C11.9401 17.9994 11.5146 17.8218 11.2007 17.5059C10.8868 17.1901 10.7103 16.7619 10.7097 16.3153V11.9598C10.7103 11.5132 10.8869 11.0851 11.2007 10.7693C11.5146 10.4536 11.9401 10.276 12.3839 10.2756H16.7673C17.2111 10.2762 17.6365 10.4538 17.9502 10.7695C18.264 11.0853 18.4405 11.5133 18.4411 11.9598V16.3153C18.4406 16.7619 18.2642 17.1901 17.9504 17.5059C17.6366 17.8217 17.2112 17.9994 16.7673 18ZM12.3839 11.5826C12.2838 11.5827 12.1878 11.6228 12.117 11.694C12.0462 11.7651 12.0062 11.8617 12.006 11.9624V16.3179C12.0061 16.4187 12.046 16.5154 12.1168 16.5867C12.1877 16.658 12.2837 16.6981 12.3839 16.6982H16.7673C16.8675 16.698 16.9634 16.6578 17.0341 16.5865C17.1049 16.5152 17.1447 16.4186 17.1448 16.3179V11.9598C17.1447 11.8591 17.1049 11.7626 17.0341 11.6914C16.9633 11.6202 16.8674 11.5801 16.7673 11.58L12.3839 11.5826Z" fill="#E2EBF2"/>
<path d="M14.5782 7.72439C13.8205 7.71872 13.0815 7.48748 12.4543 7.05981C11.8271 6.63214 11.3398 6.02719 11.0537 5.32123C10.7677 4.61527 10.6958 3.83989 10.847 3.09286C10.9983 2.34582 11.3659 1.66057 11.9036 1.12348C12.4414 0.586397 13.1251 0.221524 13.8686 0.0748621C14.612 -0.0717995 15.3821 0.00631593 16.0815 0.299361C16.7809 0.592405 17.3785 1.08726 17.7989 1.72154C18.2192 2.35582 18.4435 3.10113 18.4436 3.86351C18.4385 4.89088 18.0287 5.87429 17.3041 6.59806C16.5795 7.32183 15.5991 7.72689 14.5782 7.72439ZM14.5782 1.30699C14.0769 1.31265 13.5885 1.46739 13.1745 1.75172C12.7605 2.03606 12.4393 2.43728 12.2513 2.90489C12.0634 3.37251 12.0171 3.88561 12.1184 4.37962C12.2196 4.87364 12.4638 5.32648 12.8202 5.68115C13.1766 6.03582 13.6294 6.27647 14.1214 6.37281C14.6135 6.46915 15.1228 6.41688 15.5854 6.22256C16.048 6.02825 16.4431 5.70059 16.721 5.28081C16.999 4.86104 17.1473 4.36792 17.1473 3.86351C17.1432 3.18154 16.8704 2.52907 16.3887 2.04929C15.907 1.56951 15.2559 1.30161 14.5782 1.30438V1.30699Z" fill="#E2EBF2"/>
</svg>
