<svg width="120" height="51" viewBox="0 0 120 51" fill="none" xmlns="http://www.w3.org/2000/svg">
<rect width="47.6" height="16" fill="#330000"/>
<path d="M4.56 5.75199C4.56 5.55465 4.62667 5.40265 4.76 5.29599C4.89333 5.18399 5.07733 5.12799 5.312 5.12799L7.248 9.77599L7.096 10.152L7.152 10.176L9.2 5.12799C9.43467 5.12799 9.61867 5.18399 9.752 5.29599C9.89067 5.40799 9.96 5.56265 9.96 5.75999V10.872C9.464 10.872 9.216 10.6667 9.216 10.256V6.88799L9.424 6.33599L9.36 6.31999L7.576 10.656C7.54933 10.72 7.50667 10.7707 7.448 10.808C7.38933 10.8507 7.328 10.872 7.264 10.872C7.19467 10.872 7.13067 10.8533 7.072 10.816C7.01333 10.7787 6.97067 10.7253 6.944 10.656L5.16 6.31199L5.096 6.33599L5.304 6.87999V10.256C5.304 10.4587 5.24 10.6133 5.112 10.72C4.98933 10.8213 4.80533 10.872 4.56 10.872V5.75199ZM11.3954 10.872C11.2354 10.84 11.1101 10.7733 11.0194 10.672C10.9288 10.5653 10.8834 10.4373 10.8834 10.288C10.8834 10.1867 10.9074 10.08 10.9554 9.96799L12.8674 5.36799C12.9314 5.20799 13.0541 5.12799 13.2354 5.12799C13.4061 5.12799 13.5261 5.20799 13.5954 5.36799L15.5074 9.96799C15.5554 10.08 15.5794 10.1867 15.5794 10.288C15.5794 10.432 15.5341 10.5573 15.4434 10.664C15.3528 10.7707 15.2274 10.84 15.0674 10.872L14.3794 9.19999H12.0834L11.3954 10.872ZM14.1474 8.55199L13.1154 5.93599L13.0514 5.95999L13.1954 6.32799L12.3154 8.55199H14.1474ZM18.2944 10.872C17.8464 10.872 17.457 10.808 17.1264 10.68C16.801 10.552 16.553 10.3813 16.3824 10.168C16.2117 9.95465 16.1264 9.72532 16.1264 9.47999C16.1264 9.27732 16.1797 9.12265 16.2864 9.01599C16.393 8.90399 16.5557 8.84799 16.7744 8.84799C16.7744 9.30132 16.9104 9.64799 17.1824 9.88799C17.4544 10.1227 17.8357 10.24 18.3264 10.24C18.7957 10.24 19.1557 10.1627 19.4064 10.008C19.657 9.84799 19.7824 9.61332 19.7824 9.30399C19.7824 9.11732 19.7344 8.96532 19.6384 8.84799C19.5477 8.72532 19.3904 8.62132 19.1664 8.53599C18.9477 8.44532 18.6304 8.35465 18.2144 8.26399C17.7237 8.15732 17.3344 8.03465 17.0464 7.89599C16.7584 7.75199 16.5477 7.57865 16.4144 7.37599C16.281 7.17332 16.2144 6.92265 16.2144 6.62399C16.2144 6.32532 16.297 6.06399 16.4624 5.83999C16.633 5.61065 16.873 5.43465 17.1824 5.31199C17.4917 5.18932 17.8517 5.12799 18.2624 5.12799C18.6517 5.12799 18.9984 5.18399 19.3024 5.29599C19.6117 5.40265 19.8517 5.55732 20.0224 5.75999C20.1984 5.95732 20.2864 6.18132 20.2864 6.43199C20.2864 6.58665 20.2357 6.70932 20.1344 6.79999C20.0384 6.88532 19.8864 6.92799 19.6784 6.92799C19.6197 6.52265 19.4757 6.22665 19.2464 6.03999C19.0224 5.85332 18.6944 5.75999 18.2624 5.75999C17.8464 5.75999 17.5264 5.83465 17.3024 5.98399C17.0784 6.12799 16.9664 6.33332 16.9664 6.59999C16.9664 6.78665 17.0064 6.94132 17.0864 7.06399C17.1717 7.18132 17.313 7.28265 17.5104 7.36799C17.713 7.45332 17.9957 7.53599 18.3584 7.61599C18.9024 7.73332 19.329 7.86399 19.6384 8.00799C19.953 8.15199 20.1797 8.32799 20.3184 8.53599C20.457 8.74399 20.5264 8.99999 20.5264 9.30399C20.5264 9.78932 20.3237 10.1733 19.9184 10.456C19.513 10.7333 18.9717 10.872 18.2944 10.872ZM22.7554 5.86399H20.8034C20.8034 5.42132 21.0114 5.19999 21.4274 5.19999H25.4514C25.4514 5.64265 25.2434 5.86399 24.8274 5.86399H23.5074V10.248C23.5074 10.4507 23.4434 10.6053 23.3154 10.712C23.1874 10.8187 23.0008 10.872 22.7554 10.872V5.86399ZM27.8749 10.872C27.4323 10.872 27.0349 10.7867 26.6829 10.616C26.3363 10.44 26.0643 10.2 25.8669 9.89599C25.6696 9.58665 25.5709 9.24532 25.5709 8.87199V7.11199C25.5709 6.73865 25.6696 6.40265 25.8669 6.10399C26.0643 5.79999 26.3363 5.56265 26.6829 5.39199C27.0349 5.21599 27.4323 5.12799 27.8749 5.12799C28.3229 5.12799 28.7203 5.21599 29.0669 5.39199C29.4189 5.56265 29.6936 5.79999 29.8909 6.10399C30.0883 6.40265 30.1869 6.73865 30.1869 7.11199V8.87199C30.1869 9.24532 30.0883 9.58665 29.8909 9.89599C29.6936 10.2 29.4189 10.44 29.0669 10.616C28.7149 10.7867 28.3176 10.872 27.8749 10.872ZM27.8749 10.216C28.3709 10.216 28.7576 10.0933 29.0349 9.84799C29.3123 9.60265 29.4509 9.27465 29.4509 8.86399V7.12799C29.4509 6.71732 29.3123 6.39199 29.0349 6.15199C28.7576 5.90665 28.3709 5.78399 27.8749 5.78399C27.3843 5.78399 27.0003 5.90665 26.7229 6.15199C26.4456 6.39199 26.3069 6.71732 26.3069 7.12799V8.86399C26.3069 9.27465 26.4456 9.60265 26.7229 9.84799C27.0003 10.0933 27.3843 10.216 27.8749 10.216ZM31.1069 5.55199C31.1069 5.45065 31.1415 5.36799 31.2109 5.30399C31.2855 5.23465 31.3789 5.19999 31.4909 5.19999H33.6989C34.2162 5.19999 34.6269 5.35199 34.9309 5.65599C35.2402 5.95465 35.3949 6.35465 35.3949 6.85599C35.3949 7.48532 35.1202 7.93065 34.5709 8.19199V8.21599C34.8109 8.31732 34.9949 8.47199 35.1229 8.67999C35.2509 8.88265 35.3149 9.13065 35.3149 9.42399V10.248C35.3149 10.4507 35.2509 10.6053 35.1229 10.712C34.9949 10.8187 34.8082 10.872 34.5629 10.872V9.47199C34.5629 9.15732 34.4909 8.91999 34.3469 8.75999C34.2082 8.59465 34.0002 8.51199 33.7229 8.51199H31.8509V10.248C31.8509 10.4507 31.7869 10.6053 31.6589 10.712C31.5362 10.8187 31.3522 10.872 31.1069 10.872V5.55199ZM33.6749 7.86399C33.9682 7.86399 34.2002 7.77332 34.3709 7.59199C34.5469 7.41065 34.6349 7.16265 34.6349 6.84799C34.6349 6.52799 34.5522 6.28265 34.3869 6.11199C34.2215 5.94132 33.9842 5.85599 33.6749 5.85599H31.8509V7.86399H33.6749ZM36.363 7.28799C36.5337 7.12799 36.667 6.94932 36.763 6.75199C36.8643 6.55465 36.915 6.37332 36.915 6.20799C36.8617 6.22932 36.803 6.23999 36.739 6.23999C36.595 6.23999 36.475 6.18932 36.379 6.08799C36.283 5.98665 36.235 5.85599 36.235 5.69599C36.235 5.52532 36.2883 5.38932 36.395 5.28799C36.5017 5.18132 36.6377 5.12799 36.803 5.12799C36.9843 5.12799 37.1283 5.18399 37.235 5.29599C37.3417 5.40799 37.395 5.54932 37.395 5.71999C37.395 6.05599 37.331 6.35999 37.203 6.63199C37.075 6.89865 36.9097 7.11199 36.707 7.27199C36.6537 7.30932 36.5897 7.32799 36.515 7.32799C36.4457 7.32799 36.395 7.31465 36.363 7.28799ZM40.3178 10.872C39.8698 10.872 39.4805 10.808 39.1498 10.68C38.8245 10.552 38.5765 10.3813 38.4058 10.168C38.2351 9.95465 38.1498 9.72532 38.1498 9.47999C38.1498 9.27732 38.2031 9.12265 38.3098 9.01599C38.4165 8.90399 38.5791 8.84799 38.7978 8.84799C38.7978 9.30132 38.9338 9.64799 39.2058 9.88799C39.4778 10.1227 39.8591 10.24 40.3498 10.24C40.8191 10.24 41.1791 10.1627 41.4298 10.008C41.6805 9.84799 41.8058 9.61332 41.8058 9.30399C41.8058 9.11732 41.7578 8.96532 41.6618 8.84799C41.5711 8.72532 41.4138 8.62132 41.1898 8.53599C40.9711 8.44532 40.6538 8.35465 40.2378 8.26399C39.7471 8.15732 39.3578 8.03465 39.0698 7.89599C38.7818 7.75199 38.5711 7.57865 38.4378 7.37599C38.3045 7.17332 38.2378 6.92265 38.2378 6.62399C38.2378 6.32532 38.3205 6.06399 38.4858 5.83999C38.6565 5.61065 38.8965 5.43465 39.2058 5.31199C39.5151 5.18932 39.8751 5.12799 40.2858 5.12799C40.6751 5.12799 41.0218 5.18399 41.3258 5.29599C41.6351 5.40265 41.8751 5.55732 42.0458 5.75999C42.2218 5.95732 42.3098 6.18132 42.3098 6.43199C42.3098 6.58665 42.2591 6.70932 42.1578 6.79999C42.0618 6.88532 41.9098 6.92799 41.7018 6.92799C41.6431 6.52265 41.4991 6.22665 41.2698 6.03999C41.0458 5.85332 40.7178 5.75999 40.2858 5.75999C39.8698 5.75999 39.5498 5.83465 39.3258 5.98399C39.1018 6.12799 38.9898 6.33332 38.9898 6.59999C38.9898 6.78665 39.0298 6.94132 39.1098 7.06399C39.1951 7.18132 39.3365 7.28265 39.5338 7.36799C39.7365 7.45332 40.0191 7.53599 40.3818 7.61599C40.9258 7.73332 41.3525 7.86399 41.6618 8.00799C41.9765 8.15199 42.2031 8.32799 42.3418 8.53599C42.4805 8.74399 42.5498 8.99999 42.5498 9.30399C42.5498 9.78932 42.3471 10.1733 41.9418 10.456C41.5365 10.7333 40.9951 10.872 40.3178 10.872Z" fill="#E2EBF2"/>
<path d="M2.36 37C2.09333 37 1.86667 36.92 1.68 36.76C1.49333 36.5867 1.4 36.3733 1.4 36.12V23.88C1.4 23.6267 1.48667 23.42 1.66 23.26C1.84667 23.0867 2.08 23 2.36 23H7.04C8.17333 23 9.17333 23.2133 10.04 23.64C10.9067 24.0667 11.58 24.6667 12.06 25.44C12.5533 26.2 12.8 27.0733 12.8 28.06V31.9C12.8 32.8867 12.5533 33.7667 12.06 34.54C11.58 35.3133 10.9 35.92 10.02 36.36C9.15333 36.7867 8.16 37 7.04 37H2.36ZM6.84 35.36C8.12 35.36 9.12 35.06 9.84 34.46C10.56 33.8467 10.92 33 10.92 31.92V28.04C10.92 26.9733 10.56 26.14 9.84 25.54C9.12 24.94 8.12 24.64 6.84 24.64H3.28V35.36H6.84ZM15.4808 37.18C15.0808 37.1 14.7674 36.9333 14.5408 36.68C14.3141 36.4133 14.2008 36.0933 14.2008 35.72C14.2008 35.4667 14.2608 35.2 14.3808 34.92L19.1608 23.42C19.3208 23.02 19.6274 22.82 20.0808 22.82C20.5074 22.82 20.8074 23.02 20.9808 23.42L25.7608 34.92C25.8808 35.2 25.9408 35.4667 25.9408 35.72C25.9408 36.08 25.8274 36.3933 25.6008 36.66C25.3741 36.9267 25.0608 37.1 24.6608 37.18L22.9408 33H17.2008L15.4808 37.18ZM22.3608 31.38L19.7808 24.84L19.6208 24.9L19.9808 25.82L17.7808 31.38H22.3608ZM32.7281 37.18C31.6081 37.18 30.6348 37.02 29.8081 36.7C28.9948 36.38 28.3748 35.9533 27.9481 35.42C27.5215 34.8867 27.3081 34.3133 27.3081 33.7C27.3081 33.1933 27.4415 32.8067 27.7081 32.54C27.9748 32.26 28.3815 32.12 28.9281 32.12C28.9281 33.2533 29.2681 34.12 29.9481 34.72C30.6281 35.3067 31.5815 35.6 32.8081 35.6C33.9815 35.6 34.8815 35.4067 35.5081 35.02C36.1348 34.62 36.4481 34.0333 36.4481 33.26C36.4481 32.7933 36.3281 32.4133 36.0881 32.12C35.8615 31.8133 35.4681 31.5533 34.9081 31.34C34.3615 31.1133 33.5681 30.8867 32.5281 30.66C31.3015 30.3933 30.3281 30.0867 29.6081 29.74C28.8881 29.38 28.3615 28.9467 28.0281 28.44C27.6948 27.9333 27.5281 27.3067 27.5281 26.56C27.5281 25.8133 27.7348 25.16 28.1481 24.6C28.5748 24.0267 29.1748 23.5867 29.9481 23.28C30.7215 22.9733 31.6215 22.82 32.6481 22.82C33.6215 22.82 34.4881 22.96 35.2481 23.24C36.0215 23.5067 36.6215 23.8933 37.0481 24.4C37.4881 24.8933 37.7081 25.4533 37.7081 26.08C37.7081 26.4667 37.5815 26.7733 37.3281 27C37.0881 27.2133 36.7081 27.32 36.1881 27.32C36.0415 26.3067 35.6815 25.5667 35.1081 25.1C34.5481 24.6333 33.7281 24.4 32.6481 24.4C31.6081 24.4 30.8081 24.5867 30.2481 24.96C29.6881 25.32 29.4081 25.8333 29.4081 26.5C29.4081 26.9667 29.5081 27.3533 29.7081 27.66C29.9215 27.9533 30.2748 28.2067 30.7681 28.42C31.2748 28.6333 31.9815 28.84 32.8881 29.04C34.2481 29.3333 35.3148 29.66 36.0881 30.02C36.8748 30.38 37.4415 30.82 37.7881 31.34C38.1348 31.86 38.3081 32.5 38.3081 33.26C38.3081 34.4733 37.8015 35.4333 36.7881 36.14C35.7748 36.8333 34.4215 37.18 32.7281 37.18ZM40.5992 24.38C40.5992 23.8733 40.7592 23.4867 41.0792 23.22C41.3992 22.9533 41.8659 22.82 42.4792 22.82V29.12H49.5792V24.38C49.5792 23.8733 49.7392 23.4867 50.0592 23.22C50.3792 22.9533 50.8459 22.82 51.4592 22.82V35.62C51.4592 36.1267 51.2992 36.5133 50.9792 36.78C50.6592 37.0467 50.1926 37.18 49.5792 37.18V30.78H42.4792V35.62C42.4792 36.1267 42.3192 36.5133 41.9992 36.78C41.6792 37.0467 41.2126 37.18 40.5992 37.18V24.38ZM55.2116 37C54.9449 37 54.7182 36.9133 54.5316 36.74C54.3449 36.5667 54.2516 36.36 54.2516 36.12V23.88C54.2516 23.6267 54.3449 23.42 54.5316 23.26C54.7182 23.0867 54.9449 23 55.2116 23H60.7716C61.9316 23 62.8516 23.3467 63.5316 24.04C64.2249 24.7333 64.5716 25.6667 64.5716 26.84C64.5716 27.4667 64.4049 28.0533 64.0716 28.6C63.7382 29.1467 63.3049 29.5533 62.7716 29.82V29.86C63.5316 30.0867 64.1182 30.48 64.5316 31.04C64.9449 31.5867 65.1516 32.2533 65.1516 33.04C65.1516 33.8133 64.9849 34.5 64.6516 35.1C64.3316 35.7 63.8782 36.1667 63.2916 36.5C62.7049 36.8333 62.0316 37 61.2716 37H55.2116ZM60.7316 29.18C61.2782 29.18 61.7449 28.96 62.1316 28.52C62.5316 28.0667 62.7316 27.52 62.7316 26.88C62.7316 26.1733 62.5516 25.62 62.1916 25.22C61.8449 24.82 61.3582 24.62 60.7316 24.62H56.1116V29.18H60.7316ZM61.1316 35.38C61.8116 35.38 62.3449 35.18 62.7316 34.78C63.1182 34.3667 63.3116 33.7933 63.3116 33.06C63.3116 32.3533 63.1182 31.8 62.7316 31.4C62.3582 31 61.8249 30.8 61.1316 30.8H56.1116V35.38H61.1316ZM72.7147 37.18C71.608 37.18 70.6147 36.9667 69.7347 36.54C68.868 36.1 68.188 35.5 67.6947 34.74C67.2014 33.9667 66.9547 33.1133 66.9547 32.18V27.78C66.9547 26.8467 67.2014 26.0067 67.6947 25.26C68.188 24.5 68.868 23.9067 69.7347 23.48C70.6147 23.04 71.608 22.82 72.7147 22.82C73.8347 22.82 74.828 23.04 75.6947 23.48C76.5747 23.9067 77.2614 24.5 77.7547 25.26C78.248 26.0067 78.4947 26.8467 78.4947 27.78V32.18C78.4947 33.1133 78.248 33.9667 77.7547 34.74C77.2614 35.5 76.5747 36.1 75.6947 36.54C74.8147 36.9667 73.8214 37.18 72.7147 37.18ZM72.7147 35.54C73.9547 35.54 74.9214 35.2333 75.6147 34.62C76.308 34.0067 76.6547 33.1867 76.6547 32.16V27.82C76.6547 26.7933 76.308 25.98 75.6147 25.38C74.9214 24.7667 73.9547 24.46 72.7147 24.46C71.488 24.46 70.528 24.7667 69.8347 25.38C69.1414 25.98 68.7947 26.7933 68.7947 27.82V32.16C68.7947 33.1867 69.1414 34.0067 69.8347 34.62C70.528 35.2333 71.488 35.54 72.7147 35.54ZM80.6761 37.18C80.2761 37.1 79.9628 36.9333 79.7361 36.68C79.5094 36.4133 79.3961 36.0933 79.3961 35.72C79.3961 35.4667 79.4561 35.2 79.5761 34.92L84.3561 23.42C84.5161 23.02 84.8228 22.82 85.2761 22.82C85.7028 22.82 86.0028 23.02 86.1761 23.42L90.9561 34.92C91.0761 35.2 91.1361 35.4667 91.1361 35.72C91.1361 36.08 91.0228 36.3933 90.7961 36.66C90.5694 36.9267 90.2561 37.1 89.8561 37.18L88.1361 33H82.3961L80.6761 37.18ZM87.5561 31.38L84.9761 24.84L84.8161 24.9L85.1761 25.82L82.9761 31.38H87.5561ZM93.4313 23.88C93.4313 23.6267 93.5179 23.42 93.6913 23.26C93.8779 23.0867 94.1113 23 94.3913 23H99.9113C101.205 23 102.231 23.38 102.991 24.14C103.765 24.8867 104.151 25.8867 104.151 27.14C104.151 28.7133 103.465 29.8267 102.091 30.48V30.54C102.691 30.7933 103.151 31.18 103.471 31.7C103.791 32.2067 103.951 32.8267 103.951 33.56V35.62C103.951 36.1267 103.791 36.5133 103.471 36.78C103.151 37.0467 102.685 37.18 102.071 37.18V33.68C102.071 32.8933 101.891 32.3 101.531 31.9C101.185 31.4867 100.665 31.28 99.9713 31.28H95.2913V35.62C95.2913 36.1267 95.1313 36.5133 94.8113 36.78C94.5046 37.0467 94.0446 37.18 93.4313 37.18V23.88ZM99.8513 29.66C100.585 29.66 101.165 29.4333 101.591 28.98C102.031 28.5267 102.251 27.9067 102.251 27.12C102.251 26.32 102.045 25.7067 101.631 25.28C101.218 24.8533 100.625 24.64 99.8513 24.64H95.2913V29.66H99.8513ZM107.712 37C107.445 37 107.218 36.92 107.032 36.76C106.845 36.5867 106.752 36.3733 106.752 36.12V23.88C106.752 23.6267 106.838 23.42 107.012 23.26C107.198 23.0867 107.432 23 107.712 23H112.392C113.525 23 114.525 23.2133 115.392 23.64C116.258 24.0667 116.932 24.6667 117.412 25.44C117.905 26.2 118.152 27.0733 118.152 28.06V31.9C118.152 32.8867 117.905 33.7667 117.412 34.54C116.932 35.3133 116.252 35.92 115.372 36.36C114.505 36.7867 113.512 37 112.392 37H107.712ZM112.192 35.36C113.472 35.36 114.472 35.06 115.192 34.46C115.912 33.8467 116.272 33 116.272 31.92V28.04C116.272 26.9733 115.912 26.14 115.192 25.54C114.472 24.94 113.472 24.64 112.192 24.64H108.632V35.36H112.192Z" fill="#E2EBF2"/>
<path d="M85.2 49C85.0233 49 84.935 48.9117 84.935 48.735V42.325C84.935 42.1517 85.0233 42.065 85.2 42.065C85.3733 42.065 85.46 42.1517 85.46 42.325V44.97C85.61 44.74 85.8233 44.565 86.1 44.445C86.38 44.325 86.74 44.265 87.18 44.265H87.56C88.1833 44.265 88.6383 44.41 88.925 44.7C89.215 44.99 89.36 45.4467 89.36 46.07V47.195C89.36 47.8183 89.215 48.275 88.925 48.565C88.6383 48.855 88.1833 49 87.56 49H87.18C86.74 49 86.38 48.9417 86.1 48.825C85.8233 48.705 85.61 48.5283 85.46 48.295V48.735C85.46 48.9117 85.3733 49 85.2 49ZM87.18 48.475H87.56C88.0367 48.475 88.3683 48.3817 88.555 48.195C88.7417 48.005 88.835 47.6717 88.835 47.195V46.07C88.835 45.5933 88.74 45.2617 88.55 45.075C88.3633 44.885 88.0333 44.79 87.56 44.79H87.18C86.66 44.79 86.2433 44.8717 85.93 45.035C85.6167 45.1983 85.46 45.4467 85.46 45.78V47.505C85.4667 47.8283 85.6267 48.0717 85.94 48.235C86.2533 48.395 86.6667 48.475 87.18 48.475ZM91.4871 46.84V47.205C91.4871 47.675 91.5804 48.005 91.7671 48.195C91.9571 48.3817 92.2904 48.475 92.7671 48.475H93.5871C94.0071 48.475 94.3121 48.4217 94.5021 48.315C94.6954 48.205 94.8104 48.0167 94.8471 47.75C94.8604 47.6667 94.8871 47.6033 94.9271 47.56C94.9704 47.5167 95.0354 47.495 95.1221 47.495C95.2088 47.495 95.2738 47.52 95.3171 47.57C95.3638 47.6167 95.3821 47.6833 95.3721 47.77C95.3288 48.19 95.1604 48.5 94.8671 48.7C94.5738 48.9 94.1471 49 93.5871 49H92.7671C92.1438 49 91.6871 48.8567 91.3971 48.57C91.1071 48.28 90.9621 47.825 90.9621 47.205V46.075C90.9621 45.445 91.1071 44.9867 91.3971 44.7C91.6871 44.41 92.1438 44.2683 92.7671 44.275H93.5871C94.2104 44.275 94.6654 44.42 94.9521 44.71C95.2421 44.9967 95.3871 45.4517 95.3871 46.075V46.575C95.3871 46.7517 95.3004 46.84 95.1271 46.84H91.4871ZM92.7671 44.8C92.2904 44.7933 91.9571 44.885 91.7671 45.075C91.5804 45.2617 91.4871 45.595 91.4871 46.075V46.315H94.8621V46.075C94.8621 45.5983 94.7688 45.2667 94.5821 45.08C94.3954 44.8933 94.0638 44.8 93.5871 44.8H92.7671ZM98.8572 49C98.2439 49 97.7955 48.8583 97.5122 48.575C97.2289 48.2917 97.0872 47.845 97.0872 47.235V44.8H96.4922C96.3155 44.8 96.2272 44.7117 96.2272 44.535C96.2272 44.3617 96.3155 44.275 96.4922 44.275H97.0872V43.2C97.0872 43.0233 97.1739 42.935 97.3472 42.935C97.5239 42.935 97.6122 43.0233 97.6122 43.2V44.275H98.8672C99.0405 44.275 99.1272 44.3617 99.1272 44.535C99.1272 44.7117 99.0405 44.8 98.8672 44.8H97.6122V47.235C97.6122 47.7017 97.7022 48.025 97.8822 48.205C98.0655 48.385 98.3905 48.475 98.8572 48.475C98.9539 48.475 99.0222 48.4967 99.0622 48.54C99.1055 48.5833 99.1272 48.6483 99.1272 48.735C99.1272 48.9117 99.0372 49 98.8572 49ZM101.613 49C101.093 49 100.712 48.88 100.468 48.64C100.228 48.3967 100.108 48.015 100.108 47.495C100.108 46.975 100.23 46.5933 100.473 46.35C100.717 46.1067 101.097 45.985 101.613 45.985H103.888C103.882 45.545 103.782 45.2383 103.588 45.065C103.398 44.8883 103.073 44.8 102.613 44.8H102.033C101.61 44.8 101.3 44.845 101.103 44.935C100.907 45.025 100.785 45.1783 100.738 45.395C100.715 45.4783 100.683 45.54 100.643 45.58C100.607 45.6167 100.547 45.635 100.463 45.635C100.377 45.635 100.308 45.6117 100.258 45.565C100.212 45.515 100.195 45.4483 100.208 45.365C100.252 44.985 100.423 44.7083 100.723 44.535C101.027 44.3617 101.463 44.275 102.033 44.275H102.613C103.237 44.275 103.692 44.42 103.978 44.71C104.268 44.9967 104.413 45.4517 104.413 46.075V48.735C104.413 48.9117 104.327 49 104.153 49C103.977 49 103.888 48.9117 103.888 48.735V48.24C103.568 48.7467 102.997 49 102.173 49H101.613ZM101.613 48.475H102.173C102.497 48.475 102.78 48.44 103.023 48.37C103.27 48.2967 103.468 48.18 103.618 48.02C103.768 47.86 103.858 47.6467 103.888 47.38V46.51H101.613C101.243 46.51 100.987 46.5817 100.843 46.725C100.703 46.865 100.633 47.1217 100.633 47.495C100.633 47.865 100.703 48.1217 100.843 48.265C100.987 48.405 101.243 48.475 101.613 48.475ZM110.055 49C109.878 49 109.79 48.9117 109.79 48.735V43.18L110.03 43.145L108.945 44.205C108.885 44.265 108.825 44.2967 108.765 44.3C108.705 44.3033 108.645 44.275 108.585 44.215C108.471 44.095 108.473 43.9717 108.59 43.845L109.775 42.69C109.855 42.6 109.963 42.555 110.1 42.555C110.243 42.555 110.315 42.6433 110.315 42.82V48.735C110.315 48.9117 110.228 49 110.055 49ZM112.339 49C112.146 49 112.049 48.9017 112.049 48.705V48.515C112.049 48.325 112.146 48.23 112.339 48.23H112.524C112.714 48.23 112.809 48.325 112.809 48.515V48.705C112.809 48.9017 112.714 49 112.524 49H112.339ZM116.296 49.02C115.573 49.02 115.044 48.8533 114.711 48.52C114.378 48.1867 114.211 47.6583 114.211 46.935V44.655C114.211 43.9317 114.378 43.405 114.711 43.075C115.048 42.745 115.576 42.5817 116.296 42.585H116.896C117.619 42.585 118.146 42.7517 118.476 43.085C118.809 43.415 118.976 43.9417 118.976 44.665V46.935C118.976 47.6583 118.809 48.1867 118.476 48.52C118.146 48.8533 117.619 49.02 116.896 49.02H116.296ZM116.296 48.495H116.896C117.279 48.495 117.584 48.445 117.811 48.345C118.038 48.245 118.201 48.0817 118.301 47.855C118.401 47.625 118.451 47.3183 118.451 46.935V44.665C118.451 44.2817 118.401 43.9767 118.301 43.75C118.201 43.5233 118.038 43.36 117.811 43.26C117.584 43.16 117.279 43.11 116.896 43.11H116.296C115.913 43.1067 115.606 43.155 115.376 43.255C115.149 43.3517 114.986 43.5133 114.886 43.74C114.786 43.9667 114.736 44.2717 114.736 44.655V46.935C114.736 47.3183 114.786 47.625 114.886 47.855C114.986 48.0817 115.149 48.245 115.376 48.345C115.603 48.445 115.909 48.495 116.296 48.495ZM116.506 46.195C116.313 46.195 116.216 46.0967 116.216 45.9V45.71C116.216 45.52 116.313 45.425 116.506 45.425H116.691C116.881 45.425 116.976 45.52 116.976 45.71V45.9C116.976 46.0967 116.881 46.195 116.691 46.195H116.506Z" fill="#838C95"/>
</svg>
