<svg width="21" height="20" viewBox="0 0 21 20" fill="none" xmlns="http://www.w3.org/2000/svg">
<path d="M19.0643 3.93387C19.0725 3.92567 19.0808 3.91765 19.0893 3.90984C19.2692 3.7449 19.4142 3.5447 19.5156 3.32114L19.0643 3.93387ZM19.0643 3.93387L9.63314 13.4225L10.1651 13.9512M19.0643 3.93387L10.1651 13.9512M10.1651 13.9512L9.63313 13.4225C9.49746 13.559 9.24953 13.7167 8.89402 13.8614C8.54823 14.0022 8.1464 14.1121 7.74783 14.1788C7.34665 14.2458 6.97637 14.2645 6.692 14.2392C6.48862 14.2211 6.38902 14.1861 6.35248 14.172C6.3381 14.1349 6.30208 14.0329 6.28323 13.8244C6.25723 13.5366 6.27485 13.1628 6.34052 12.7586C6.40578 12.3568 6.51414 11.9519 6.65344 11.6036C6.79671 11.2453 6.95321 10.9958 7.08863 10.8595L16.5297 1.36091C16.5374 1.35319 16.5449 1.34531 16.5522 1.33727M10.1651 13.9512L16.5522 1.33727M16.5522 1.33727C16.7168 1.15659 16.9158 1.01163 17.1371 0.910878L17.1372 0.910842M16.5522 1.33727L17.1372 0.910842M17.1372 0.910842C17.3585 0.810088 17.5976 0.755542 17.8402 0.7504L17.1372 0.910842ZM19.6798 0.758233L19.1512 1.28208C18.9793 1.10858 18.7744 0.972168 18.5491 0.880888C18.3239 0.789621 18.0827 0.745269 17.8402 0.750399L19.6798 0.758233ZM19.6798 0.758233L19.1512 1.28208C19.3233 1.45565 19.4588 1.66269 19.5494 1.89081L19.6798 0.758233ZM19.678 2.60942C19.6839 2.36365 19.64 2.11918 19.5494 1.89081L19.678 2.60942ZM19.678 2.60942C19.6722 2.85519 19.6169 3.09729 19.5157 3.32096L19.678 2.60942Z" stroke="#E2EBF2" stroke-width="1.5" stroke-linecap="round" stroke-linejoin="round"/>
<mask id="path-2-inside-1_222_34" fill="white">
<path d="M9.49683 2H4.52789C3.47361 2 2.46258 2.42142 1.71709 3.17157C0.971606 3.92172 0.552734 4.93913 0.552734 6V16C0.552734 17.0609 0.971606 18.0783 1.71709 18.8284C2.46258 19.5786 3.47361 20 4.52789 20H15.4596C17.6558 20 18.4409 18.2 18.4409 16V11"/>
</mask>
<path d="M9.49683 3.5C10.3253 3.5 10.9968 2.82843 10.9968 2C10.9968 1.17157 10.3253 0.5 9.49683 0.5V3.5ZM1.71709 3.17157L0.653128 2.11422L0.653121 2.11423L1.71709 3.17157ZM1.71709 18.8284L2.78108 17.7711L2.78102 17.771L1.71709 18.8284ZM19.9409 11C19.9409 10.1716 19.2694 9.5 18.4409 9.5C17.6125 9.5 16.9409 10.1716 16.9409 11H19.9409ZM9.49683 0.5H4.52789V3.5H9.49683V0.5ZM4.52789 0.5C3.07274 0.5 1.67918 1.08175 0.653128 2.11422L2.78105 4.22892C3.24598 3.76109 3.87448 3.5 4.52789 3.5V0.5ZM0.653121 2.11423C-0.372571 3.14634 -0.947266 4.54425 -0.947266 6H2.05273C2.05273 5.33401 2.31578 4.6971 2.78105 4.22891L0.653121 2.11423ZM-0.947266 6V16H2.05273V6H-0.947266ZM-0.947266 16C-0.947266 17.4558 -0.372577 18.8537 0.653156 19.8858L2.78102 17.771C2.31579 17.3029 2.05273 16.666 2.05273 16H-0.947266ZM0.653093 19.8857C1.67917 20.9183 3.07275 21.5 4.52789 21.5V18.5C3.87447 18.5 3.24599 18.2389 2.78108 17.7711L0.653093 19.8857ZM4.52789 21.5H15.4596V18.5H4.52789V21.5ZM15.4596 21.5C17.0445 21.5 18.2731 20.8104 19.0319 19.6419C19.7272 18.5713 19.9409 17.2371 19.9409 16H16.9409C16.9409 16.9629 16.7622 17.6287 16.5158 18.0081C16.333 18.2896 16.0709 18.5 15.4596 18.5V21.5ZM19.9409 16V11H16.9409V16H19.9409Z" fill="#E2EBF2" mask="url(#path-2-inside-1_222_34)"/>
</svg>
