<svg width="27" height="27" viewBox="0 0 27 27" fill="none" xmlns="http://www.w3.org/2000/svg">
<path d="M12.536 14.616C12.536 14.136 12.6587 13.7467 12.904 13.448C13.16 13.1493 13.5333 12.8293 14.024 12.488C14.4827 12.1787 14.824 11.8907 15.048 11.624C15.2827 11.3573 15.4 11.0213 15.4 10.616C15.4 10.0613 15.2347 9.64533 14.904 9.368C14.5733 9.09067 14.056 8.952 13.352 8.952C12.712 8.952 12.1893 9.13333 11.784 9.496C11.3893 9.848 11.192 10.3387 11.192 10.968C11.192 11.1707 11.2027 11.3413 11.224 11.48C11.1707 11.4907 11.096 11.496 11 11.496C10.6373 11.496 10.3333 11.4053 10.088 11.224C9.84267 11.032 9.72 10.776 9.72 10.456C9.72 9.944 9.88533 9.47467 10.216 9.048C10.5573 8.61067 11.0053 8.26933 11.56 8.024C12.1147 7.77867 12.712 7.656 13.352 7.656C14.3867 7.656 15.2347 7.912 15.896 8.424C16.5573 8.936 16.888 9.64533 16.888 10.552C16.888 10.9573 16.8027 11.3147 16.632 11.624C16.472 11.9227 16.2747 12.1733 16.04 12.376C15.816 12.5787 15.5227 12.808 15.16 13.064C14.7653 13.3413 14.472 13.5813 14.28 13.784C14.088 13.976 13.992 14.2 13.992 14.456V14.776C13.992 15.4373 13.5067 15.768 12.536 15.768V14.616ZM13.24 19.144C12.9093 19.144 12.632 19.0427 12.408 18.84C12.1947 18.6267 12.088 18.36 12.088 18.04C12.088 17.7307 12.1947 17.4693 12.408 17.256C12.632 17.0427 12.9093 16.936 13.24 16.936C13.5707 16.936 13.848 17.0427 14.072 17.256C14.296 17.4693 14.408 17.7307 14.408 18.04C14.408 18.36 14.296 18.6267 14.072 18.84C13.848 19.0427 13.5707 19.144 13.24 19.144Z" fill="white"/>
<path fill-rule="evenodd" clip-rule="evenodd" d="M13.5 1.5C6.87258 1.5 1.5 6.87258 1.5 13.5C1.5 20.1274 6.87258 25.5 13.5 25.5C20.1274 25.5 25.5 20.1274 25.5 13.5C25.5 6.87258 20.1274 1.5 13.5 1.5ZM0.5 13.5C0.5 6.3203 6.3203 0.5 13.5 0.5C20.6797 0.5 26.5 6.3203 26.5 13.5C26.5 20.6797 20.6797 26.5 13.5 26.5C6.3203 26.5 0.5 20.6797 0.5 13.5Z" fill="#E2EBF2"/>
</svg>
