<svg width="9" height="8" viewBox="0 0 9 8" fill="none" xmlns="http://www.w3.org/2000/svg">
<path d="M4.73048 6.31579C4.60638 6.31523 4.48523 6.2777 4.38231 6.20796C4.2794 6.13822 4.19934 6.03938 4.15224 5.92393C4.10513 5.80847 4.0931 5.68157 4.11766 5.55925C4.14221 5.43692 4.20226 5.32465 4.29021 5.23661C4.37816 5.14857 4.49008 5.0887 4.61184 5.06456C4.7336 5.04042 4.85974 5.0531 4.97434 5.10098C5.08895 5.14887 5.18687 5.22982 5.25576 5.33362C5.32465 5.43742 5.36142 5.55942 5.36142 5.68421C5.36103 5.85209 5.29434 6.01294 5.17602 6.13139C5.0577 6.24983 4.89744 6.31616 4.73048 6.31579Z" fill="#838C95"/>
<path d="M4.73291 0.888889C5.34441 0.888889 5.94217 1.07135 6.45061 1.41321C6.95905 1.75506 7.35534 2.24095 7.58935 2.80943C7.82336 3.37791 7.88458 4.00345 7.76529 4.60695C7.64599 5.21044 7.35152 5.76479 6.91913 6.19989C6.48674 6.63498 5.93583 6.93129 5.33609 7.05133C4.73634 7.17137 4.11468 7.10976 3.54973 6.87429C2.98478 6.63882 2.50191 6.24006 2.16218 5.72844C1.82245 5.21682 1.64112 4.61532 1.64112 4C1.64204 3.17517 1.96808 2.38438 2.5477 1.80114C3.12733 1.21789 3.9132 0.889818 4.73291 0.888889ZM4.73291 0C3.9467 0 3.17814 0.234596 2.52443 0.674121C1.87072 1.11365 1.36121 1.73836 1.06034 2.46927C0.759474 3.20017 0.680753 4.00444 0.834135 4.78036C0.987517 5.55628 1.36611 6.26902 1.92205 6.82842C2.47798 7.38783 3.18629 7.7688 3.95739 7.92314C4.7285 8.07748 5.52777 7.99827 6.25413 7.69552C6.9805 7.39277 7.60133 6.88008 8.03813 6.22228C8.47492 5.56448 8.70806 4.79112 8.70806 4C8.70806 2.93913 8.28925 1.92172 7.54377 1.17157C6.79828 0.421427 5.78718 0 4.73291 0Z" fill="#838C95"/>
<path d="M5.25598 1.6842H4.20981C4.13033 1.68421 4.05189 1.69881 3.98046 1.72687C3.90903 1.75493 3.84648 1.79573 3.79757 1.84617C3.74866 1.89661 3.71467 1.95535 3.69818 2.01795C3.68169 2.08054 3.68314 2.14534 3.70242 2.20741L4.2255 3.8918C4.25385 3.98285 4.31917 4.06366 4.4111 4.12141C4.50303 4.17916 4.61629 4.21052 4.7329 4.21052C4.8495 4.21052 4.96276 4.17916 5.05469 4.12141C5.14662 4.06366 5.21194 3.98285 5.24029 3.8918L5.76338 2.20741C5.78265 2.14534 5.7841 2.08054 5.76761 2.01795C5.75112 1.95535 5.71713 1.89661 5.66822 1.84617C5.61931 1.79573 5.55676 1.75493 5.48533 1.72687C5.4139 1.69881 5.33547 1.68421 5.25598 1.6842Z" fill="#838C95"/>
</svg>
