<svg width="18" height="20" viewBox="0 0 18 20" fill="none" xmlns="http://www.w3.org/2000/svg">
<path d="M17.4471 19.3242C17.4463 19.5034 17.3638 19.6751 17.2178 19.8017C17.0718 19.9283 16.8741 19.9996 16.6678 20H1.33041C1.12442 19.9993 0.927119 19.9278 0.781463 19.8012C0.635807 19.6747 0.553596 19.5032 0.552734 19.3242V0.67582C0.553596 0.496812 0.635807 0.325349 0.781463 0.198771C0.927119 0.0721918 1.12442 0.000748997 1.33041 0H12.709L17.4455 4.1161L17.4471 19.3242ZM15.6298 5.20452H12.3701C12.121 5.20415 11.8823 5.11799 11.7061 4.96491C11.53 4.81184 11.4308 4.60433 11.4304 4.38785V1.57644H2.3684V18.4221H15.6331L15.6298 5.20452ZM5.57243 3.34211C5.23884 3.34183 4.91264 3.42753 4.63511 3.58839C4.35758 3.74925 4.14118 3.97802 4.0133 4.24577C3.88541 4.51353 3.85178 4.80823 3.91667 5.09259C3.98155 5.37696 4.14203 5.63821 4.3778 5.8433C4.61357 6.04839 4.91404 6.18811 5.2412 6.24477C5.56837 6.30143 5.90751 6.27249 6.21575 6.16162C6.52398 6.05074 6.78744 5.86291 6.97281 5.62188C7.15818 5.38086 7.25712 5.09747 7.25712 4.80757C7.25712 4.61512 7.21351 4.42456 7.12876 4.24676C7.04401 4.06896 6.9198 3.90741 6.76321 3.77133C6.60662 3.63525 6.42072 3.52731 6.21612 3.45366C6.01153 3.38001 5.79225 3.34211 5.57079 3.34211H5.57243ZM13.6897 7.97041H4.07929V9.54685H13.6897V7.97041ZM13.6897 11.3196H4.07929V12.8975H13.6897V11.3196ZM13.6897 14.6688H4.07929V16.2467H13.6897V14.6688Z" fill="#E2EBF2"/>
</svg>
