<svg width="19" height="18" viewBox="0 0 19 18" fill="none" xmlns="http://www.w3.org/2000/svg">
<path d="M9.49683 18C6.44093 18 3.68317 16.5 2.04342 13.95V18H0.552734V11.25H7.26081V12.75H3.01236C4.35398 15.075 6.73907 16.5 9.49683 16.5C13.5962 16.5 16.9502 13.125 16.9502 9H18.4409C18.4409 13.95 14.4161 18 9.49683 18ZM2.04342 9H0.552734C0.552734 4.05 4.57758 0 9.49683 0C12.5527 0 15.3105 1.5 16.9502 4.05V0H18.4409V6.75H11.7329V5.25H15.9813C14.6397 2.925 12.2546 1.5 9.49683 1.5C5.39745 1.5 2.04342 4.875 2.04342 9Z" fill="#E2EBF2"/>
<mask id="path-2-outside-1_222_75" maskUnits="userSpaceOnUse" x="6.99988" y="4.5" width="5" height="9" fill="black">
<rect fill="white" x="6.99988" y="4.5" width="5" height="9"/>
<path d="M11.7519 10.02C11.7519 10.4733 11.5732 10.8387 11.2159 11.116C10.8639 11.388 10.3812 11.5373 9.76788 11.564V11.996C9.76788 12.1293 9.73321 12.2307 9.66388 12.3C9.59454 12.3693 9.49588 12.404 9.36788 12.404V11.564C8.95721 11.548 8.60521 11.4733 8.31188 11.34C8.01854 11.2013 7.79454 11.028 7.63988 10.82C7.49054 10.612 7.41588 10.388 7.41588 10.148C7.41588 9.96667 7.46121 9.828 7.55188 9.732C7.64788 9.63067 7.78921 9.57733 7.97588 9.572C7.97588 10.0147 8.09321 10.3587 8.32788 10.604C8.56788 10.844 8.91454 10.98 9.36788 11.012V8.892C8.70121 8.748 8.22388 8.55333 7.93588 8.308C7.65321 8.06267 7.51188 7.72933 7.51188 7.308C7.51188 6.876 7.67721 6.52933 8.00788 6.268C8.34388 6.00133 8.79721 5.85467 9.36788 5.828V5.396C9.36788 5.268 9.40254 5.16933 9.47188 5.1C9.54121 5.03067 9.63988 4.996 9.76788 4.996V5.836C10.1039 5.85733 10.4052 5.92933 10.6719 6.052C10.9439 6.16933 11.1545 6.324 11.3039 6.516C11.4585 6.70267 11.5359 6.916 11.5359 7.156C11.5359 7.3 11.4905 7.41733 11.3999 7.508C11.3145 7.59333 11.1839 7.63867 11.0079 7.644C10.9705 7.24933 10.8479 6.95067 10.6399 6.748C10.4372 6.54 10.1465 6.41733 9.76788 6.38V8.396C10.2639 8.508 10.6532 8.636 10.9359 8.78C11.2239 8.91867 11.4319 9.08667 11.5599 9.284C11.6879 9.48133 11.7519 9.72667 11.7519 10.02ZM8.15188 7.284C8.15188 7.556 8.23988 7.76667 8.41588 7.916C8.59188 8.06533 8.90921 8.196 9.36788 8.308V6.372C8.97854 6.39333 8.67721 6.484 8.46388 6.644C8.25588 6.79867 8.15188 7.012 8.15188 7.284ZM9.76788 11.012C10.1945 10.9907 10.5252 10.8947 10.7599 10.724C10.9945 10.5533 11.1119 10.3187 11.1119 10.02C11.1119 9.83867 11.0692 9.68667 10.9839 9.564C10.9039 9.436 10.7679 9.32667 10.5759 9.236C10.3839 9.14533 10.1145 9.06 9.76788 8.98V11.012Z"/>
</mask>
<path d="M11.7519 10.02C11.7519 10.4733 11.5732 10.8387 11.2159 11.116C10.8639 11.388 10.3812 11.5373 9.76788 11.564V11.996C9.76788 12.1293 9.73321 12.2307 9.66388 12.3C9.59454 12.3693 9.49588 12.404 9.36788 12.404V11.564C8.95721 11.548 8.60521 11.4733 8.31188 11.34C8.01854 11.2013 7.79454 11.028 7.63988 10.82C7.49054 10.612 7.41588 10.388 7.41588 10.148C7.41588 9.96667 7.46121 9.828 7.55188 9.732C7.64788 9.63067 7.78921 9.57733 7.97588 9.572C7.97588 10.0147 8.09321 10.3587 8.32788 10.604C8.56788 10.844 8.91454 10.98 9.36788 11.012V8.892C8.70121 8.748 8.22388 8.55333 7.93588 8.308C7.65321 8.06267 7.51188 7.72933 7.51188 7.308C7.51188 6.876 7.67721 6.52933 8.00788 6.268C8.34388 6.00133 8.79721 5.85467 9.36788 5.828V5.396C9.36788 5.268 9.40254 5.16933 9.47188 5.1C9.54121 5.03067 9.63988 4.996 9.76788 4.996V5.836C10.1039 5.85733 10.4052 5.92933 10.6719 6.052C10.9439 6.16933 11.1545 6.324 11.3039 6.516C11.4585 6.70267 11.5359 6.916 11.5359 7.156C11.5359 7.3 11.4905 7.41733 11.3999 7.508C11.3145 7.59333 11.1839 7.63867 11.0079 7.644C10.9705 7.24933 10.8479 6.95067 10.6399 6.748C10.4372 6.54 10.1465 6.41733 9.76788 6.38V8.396C10.2639 8.508 10.6532 8.636 10.9359 8.78C11.2239 8.91867 11.4319 9.08667 11.5599 9.284C11.6879 9.48133 11.7519 9.72667 11.7519 10.02ZM8.15188 7.284C8.15188 7.556 8.23988 7.76667 8.41588 7.916C8.59188 8.06533 8.90921 8.196 9.36788 8.308V6.372C8.97854 6.39333 8.67721 6.484 8.46388 6.644C8.25588 6.79867 8.15188 7.012 8.15188 7.284ZM9.76788 11.012C10.1945 10.9907 10.5252 10.8947 10.7599 10.724C10.9945 10.5533 11.1119 10.3187 11.1119 10.02C11.1119 9.83867 11.0692 9.68667 10.9839 9.564C10.9039 9.436 10.7679 9.32667 10.5759 9.236C10.3839 9.14533 10.1145 9.06 9.76788 8.98V11.012Z" fill="#E2EBF2"/>
<path d="M11.2159 11.116L11.3382 11.2743L11.3385 11.274L11.2159 11.116ZM9.76788 11.564L9.75919 11.3642L9.56788 11.3725V11.564H9.76788ZM9.66388 12.3L9.52246 12.1586L9.52246 12.1586L9.66388 12.3ZM9.36788 12.404H9.16788V12.604H9.36788V12.404ZM9.36788 11.564H9.56788V11.3716L9.37566 11.3642L9.36788 11.564ZM8.31188 11.34L8.22639 11.5208L8.22912 11.5221L8.31188 11.34ZM7.63988 10.82L7.47739 10.9367L7.47939 10.9393L7.63988 10.82ZM7.55188 9.732L7.40669 9.59445L7.40648 9.59468L7.55188 9.732ZM7.97588 9.572H8.17588V9.3662L7.97017 9.37208L7.97588 9.572ZM8.32788 10.604L8.18331 10.7423L8.18646 10.7454L8.32788 10.604ZM9.36788 11.012L9.3538 11.2115L9.56788 11.2266V11.012H9.36788ZM9.36788 8.892H9.56788V8.73059L9.4101 8.69651L9.36788 8.892ZM7.93588 8.308L7.80478 8.45905L7.80618 8.46025L7.93588 8.308ZM8.00788 6.268L8.13189 6.42491L8.13221 6.42466L8.00788 6.268ZM9.36788 5.828L9.37721 6.02778L9.56788 6.01887V5.828H9.36788ZM9.47188 5.1L9.6133 5.24142L9.6133 5.24142L9.47188 5.1ZM9.76788 4.996H9.96788V4.796H9.76788V4.996ZM9.76788 5.836H9.56788V6.0237L9.75521 6.0356L9.76788 5.836ZM10.6719 6.052L10.5883 6.23375L10.5927 6.23564L10.6719 6.052ZM11.3039 6.516L11.1459 6.63885L11.1499 6.6436L11.3039 6.516ZM11.3999 7.508L11.2585 7.36658V7.36658L11.3999 7.508ZM11.0079 7.644L10.8088 7.66283L10.8264 7.84959L11.0139 7.84391L11.0079 7.644ZM10.6399 6.748L10.4966 6.88762L10.5003 6.89125L10.6399 6.748ZM9.76788 6.38L9.7875 6.18096L9.56788 6.15931V6.38H9.76788ZM9.76788 8.396H9.56788V8.55587L9.72383 8.59109L9.76788 8.396ZM10.9359 8.78L10.8451 8.95825L10.8491 8.9602L10.9359 8.78ZM11.5599 9.284L11.7277 9.17516V9.17516L11.5599 9.284ZM8.41588 7.916L8.28648 8.0685L8.41588 7.916ZM9.36788 8.308L9.32043 8.50229L9.56788 8.56271V8.308H9.36788ZM9.36788 6.372H9.56788V6.16074L9.35694 6.1723L9.36788 6.372ZM8.46388 6.644L8.58322 6.80449L8.58388 6.804L8.46388 6.644ZM9.76788 11.012H9.56788V11.2222L9.77787 11.2118L9.76788 11.012ZM10.7599 10.724L10.8775 10.8857V10.8857L10.7599 10.724ZM10.9839 9.564L10.8141 9.67013L10.8197 9.67821L10.9839 9.564ZM10.5759 9.236L10.6613 9.05515L10.5759 9.236ZM9.76788 8.98L9.81285 8.78512L9.56788 8.72859V8.98H9.76788ZM11.5519 10.02C11.5519 10.4117 11.4016 10.7187 11.0933 10.958L11.3385 11.274C11.7448 10.9587 11.9519 10.535 11.9519 10.02H11.5519ZM11.0936 10.9577C10.7846 11.1965 10.3465 11.3387 9.75919 11.3642L9.77657 11.7638C10.4159 11.736 10.9432 11.5795 11.3382 11.2743L11.0936 10.9577ZM9.56788 11.564V11.996H9.96788V11.564H9.56788ZM9.56788 11.996C9.56788 12.0959 9.5424 12.1386 9.52246 12.1586L9.8053 12.4414C9.92403 12.3227 9.96788 12.1628 9.96788 11.996H9.56788ZM9.52246 12.1586C9.50107 12.18 9.4597 12.204 9.36788 12.204V12.604C9.53206 12.604 9.68802 12.5587 9.8053 12.4414L9.52246 12.1586ZM9.56788 12.404V11.564H9.16788V12.404H9.56788ZM9.37566 11.3642C8.98406 11.3489 8.65885 11.278 8.39464 11.1579L8.22912 11.5221C8.55158 11.6686 8.93036 11.7471 9.36009 11.7638L9.37566 11.3642ZM8.39735 11.1592C8.12636 11.0311 7.93113 10.8765 7.80037 10.7007L7.47939 10.9393C7.65796 11.1795 7.91073 11.3716 8.2264 11.5208L8.39735 11.1592ZM7.80234 10.7034C7.67569 10.5269 7.61588 10.3433 7.61588 10.148H7.21588C7.21588 10.4327 7.3054 10.6971 7.47741 10.9366L7.80234 10.7034ZM7.61588 10.148C7.61588 9.99842 7.65301 9.9162 7.69728 9.86932L7.40648 9.59468C7.26941 9.7398 7.21588 9.93492 7.21588 10.148H7.61588ZM7.69707 9.86955C7.74568 9.81823 7.8294 9.77627 7.98159 9.77192L7.97017 9.37208C7.74902 9.3784 7.55007 9.4431 7.40669 9.59445L7.69707 9.86955ZM7.77588 9.572C7.77588 10.05 7.90328 10.4494 8.18335 10.7422L8.47241 10.4658C8.28315 10.2679 8.17588 9.97935 8.17588 9.572H7.77588ZM8.18646 10.7454C8.47061 11.0296 8.86887 11.1773 9.3538 11.2115L9.38196 10.8125C8.96022 10.7827 8.66514 10.6584 8.4693 10.4626L8.18646 10.7454ZM9.56788 11.012V8.892H9.16788V11.012H9.56788ZM9.4101 8.69651C8.75364 8.55471 8.31554 8.36869 8.06557 8.15575L7.80618 8.46025C8.13221 8.73798 8.64878 8.94129 9.32565 9.08749L9.4101 8.69651ZM8.06697 8.15696C7.83387 7.95464 7.71188 7.67952 7.71188 7.308H7.31188C7.31188 7.77915 7.47256 8.1707 7.80478 8.45904L8.06697 8.15696ZM7.71188 7.308C7.71188 6.93539 7.8506 6.64722 8.13189 6.42491L7.88387 6.11109C7.50383 6.41144 7.31188 6.81661 7.31188 7.308H7.71188ZM8.13221 6.42466C8.426 6.19149 8.8347 6.05313 9.37721 6.02778L9.35854 5.62822C8.75972 5.6562 8.26176 5.81118 7.88355 6.11134L8.13221 6.42466ZM9.56788 5.828V5.396H9.16788V5.828H9.56788ZM9.56788 5.396C9.56788 5.30418 9.59192 5.2628 9.6133 5.24142L9.33046 4.95858C9.21317 5.07586 9.16788 5.23182 9.16788 5.396H9.56788ZM9.6133 5.24142C9.63468 5.22004 9.67606 5.196 9.76788 5.196V4.796C9.6037 4.796 9.44774 4.84129 9.33046 4.95858L9.6133 5.24142ZM9.56788 4.996V5.836H9.96788V4.996H9.56788ZM9.75521 6.0356C10.0702 6.0556 10.347 6.1227 10.5883 6.2337L10.7555 5.8703C10.4634 5.73597 10.1375 5.65907 9.78055 5.6364L9.75521 6.0356ZM10.5927 6.23564C10.8404 6.34252 11.0214 6.47858 11.146 6.63879L11.4617 6.39321C11.2877 6.16942 11.0473 5.99615 10.7511 5.86836L10.5927 6.23564ZM11.1499 6.6436C11.2751 6.79479 11.3359 6.9631 11.3359 7.156H11.7359C11.7359 6.8689 11.6419 6.61055 11.4579 6.3884L11.1499 6.6436ZM11.3359 7.156C11.3359 7.25408 11.3069 7.31818 11.2585 7.36658L11.5413 7.64942C11.6742 7.51649 11.7359 7.34591 11.7359 7.156H11.3359ZM11.2585 7.36658C11.2227 7.40231 11.15 7.4396 11.0018 7.44409L11.0139 7.84391C11.2177 7.83773 11.4064 7.78436 11.5413 7.64942L11.2585 7.36658ZM11.207 7.62516C11.1668 7.20053 11.0321 6.85088 10.7795 6.60475L10.5003 6.89125C10.6637 7.05046 10.7743 7.29814 10.8088 7.66283L11.207 7.62516ZM10.7831 6.60843C10.5385 6.35736 10.1983 6.22147 9.7875 6.18096L9.74825 6.57903C10.0948 6.6132 10.3359 6.72264 10.4966 6.88757L10.7831 6.60843ZM9.56788 6.38V8.396H9.96788V6.38H9.56788ZM9.72383 8.59109C10.2121 8.70134 10.5834 8.82488 10.8451 8.95821L11.0267 8.60179C10.723 8.44712 10.3157 8.31466 9.81193 8.20091L9.72383 8.59109ZM10.8491 8.9602C11.1155 9.08847 11.29 9.23542 11.3921 9.39284L11.7277 9.17516C11.5738 8.93791 11.3322 8.74886 11.0226 8.5998L10.8491 8.9602ZM11.3921 9.39284C11.4944 9.55059 11.5519 9.75575 11.5519 10.02H11.9519C11.9519 9.69758 11.8813 9.41207 11.7277 9.17516L11.3921 9.39284ZM7.95188 7.284C7.95188 7.60314 8.05755 7.87426 8.28648 8.0685L8.54527 7.7635C8.4222 7.65907 8.35188 7.50886 8.35188 7.284H7.95188ZM8.28648 8.0685C8.50018 8.24982 8.85679 8.38908 9.32043 8.50229L9.41532 8.11371C8.96163 8.00292 8.68357 7.88084 8.54527 7.7635L8.28648 8.0685ZM9.56788 8.308V6.372H9.16788V8.308H9.56788ZM9.35694 6.1723C8.94542 6.19485 8.60032 6.29167 8.34388 6.484L8.58388 6.804C8.7541 6.67633 9.01167 6.59182 9.37882 6.5717L9.35694 6.1723ZM8.34454 6.48351C8.08292 6.67804 7.95188 6.95242 7.95188 7.284H8.35188C8.35188 7.07158 8.42883 6.91929 8.58322 6.80449L8.34454 6.48351ZM9.77787 11.2118C10.2261 11.1893 10.5999 11.0877 10.8775 10.8857L10.6422 10.5623C10.4506 10.7017 10.163 10.792 9.75789 10.8122L9.77787 11.2118ZM10.8775 10.8857C11.1657 10.6762 11.3119 10.3804 11.3119 10.02H10.9119C10.9119 10.2569 10.8234 10.4305 10.6422 10.5623L10.8775 10.8857ZM11.3119 10.02C11.3119 9.80669 11.2613 9.61258 11.1481 9.44979L10.8197 9.67821C10.8771 9.76076 10.9119 9.87064 10.9119 10.02H11.3119ZM11.1535 9.458C11.0465 9.28681 10.8744 9.15581 10.6613 9.05515L10.4905 9.41685C10.6613 9.49753 10.7613 9.58519 10.8143 9.67L11.1535 9.458ZM10.6613 9.05515C10.4506 8.95566 10.1655 8.86649 9.81285 8.78512L9.72291 9.17488C10.0636 9.25351 10.3172 9.33501 10.4905 9.41685L10.6613 9.05515ZM9.56788 8.98V11.012H9.96788V8.98H9.56788Z" fill="#E2EBF2" mask="url(#path-2-outside-1_222_75)"/>
</svg>
