<svg width="26" height="25" viewBox="0 0 26 25" fill="none" xmlns="http://www.w3.org/2000/svg">
<path d="M5 11H21V12.6H5V11Z" fill="#E2EBF2"/>
<path d="M14 4L14 20H12.4V4H14Z" fill="#E2EBF2"/>
<path fill-rule="evenodd" clip-rule="evenodd" d="M20 1H6C3.23858 1 1 3.23858 1 6V19C1 21.7614 3.23858 24 6 24H20C22.7614 24 25 21.7614 25 19V6C25 3.23858 22.7614 1 20 1ZM6 0C2.68629 0 0 2.68629 0 6V19C0 22.3137 2.68629 25 6 25H20C23.3137 25 26 22.3137 26 19V6C26 2.68629 23.3137 0 20 0H6Z" fill="#E2EBF2"/>
</svg>
