<svg width="21" height="20" viewBox="0 0 21 20" fill="none" xmlns="http://www.w3.org/2000/svg">
<path d="M6.11716 0.00102434C6.20761 0.000854942 6.29806 0.000632622 6.38851 0.000361917C6.63224 -0.00020277 6.87596 1.20073e-05 7.11968 0.000409208C7.37568 0.000726965 7.63168 0.000431619 7.88768 0.000236284C8.31724 9.95059e-06 8.74681 0.00030686 9.17637 0.000902519C9.67211 0.00158202 10.1678 0.00136083 10.6636 0.000674676C11.0904 0.000107641 11.5173 2.91121e-05 11.9442 0.000355151C12.1986 0.000549036 12.453 0.000577206 12.7074 0.000163474C12.9465 -0.000198259 13.1856 5.56006e-05 13.4247 0.000774031C13.5121 0.000938219 13.5996 0.000892924 13.687 0.000616514C14.93 -0.00294869 15.5927 0.462657 16.4709 1.30446C16.6047 1.43238 16.7396 1.55908 16.8747 1.68569C16.9256 1.73345 16.9765 1.7812 17.0273 1.82896C17.0524 1.85245 17.0774 1.87594 17.1032 1.90015C17.2319 2.02092 17.3605 2.14179 17.4891 2.26266C17.5408 2.31117 17.5924 2.35969 17.644 2.4082C17.9538 2.69928 18.2636 2.99036 18.5734 3.28145C18.599 3.30548 18.6246 3.32952 18.6509 3.35428C18.7023 3.40257 18.7537 3.45088 18.805 3.49921C18.9378 3.62411 19.0709 3.74857 19.2046 3.87238C19.8246 4.44747 20.3602 5.0323 20.4202 5.92563C20.4302 6.16979 20.4287 6.41386 20.4272 6.65817C20.4275 6.75156 20.4278 6.84494 20.4281 6.93833C20.4289 7.19016 20.4284 7.44198 20.4276 7.69381C20.4269 7.95864 20.4272 8.22347 20.4275 8.48831C20.4276 8.93307 20.427 9.37782 20.4258 9.82258C20.4246 10.2782 20.4244 10.7339 20.425 11.1896C20.4258 11.7412 20.4257 12.2928 20.4249 12.8444C20.4246 13.054 20.4247 13.2636 20.425 13.4732C20.4253 13.7208 20.4248 13.9683 20.4236 14.2158C20.4234 14.306 20.4234 14.3962 20.4237 14.4863C20.4257 15.1935 20.3637 15.8924 20.1043 16.5569C20.0921 16.5889 20.0799 16.6209 20.0674 16.654C19.6596 17.6889 18.9092 18.6064 17.9641 19.187C17.9198 19.2154 17.8755 19.2438 17.8299 19.2731C17.566 19.4348 17.2975 19.5645 17.0089 19.6756C16.9807 19.6868 16.9524 19.698 16.9233 19.7096C16.2069 19.9712 15.4774 20.0014 14.7236 19.9986C14.6206 19.9988 14.5176 19.9991 14.4147 19.9995C14.1661 20.0002 13.9176 20.0001 13.6691 19.9996C13.4667 19.9992 13.2644 19.9992 13.0621 19.9994C13.0331 19.9994 13.0041 19.9994 12.9742 19.9994C12.9153 19.9995 12.8563 19.9995 12.7974 19.9996C12.2471 20.0001 11.6967 19.9995 11.1464 19.9986C10.6761 19.9979 10.2057 19.998 9.73541 19.9988C9.18681 19.9997 8.63821 20 8.08961 19.9995C8.03091 19.9995 7.97221 19.9994 7.9135 19.9994C7.8702 19.9993 7.8702 19.9993 7.82602 19.9993C7.62437 19.9991 7.42271 19.9994 7.22106 19.9998C6.94873 20.0003 6.67642 19.9999 6.40409 19.999C6.3048 19.9987 6.2055 19.9988 6.1062 19.9992C5.26184 20.002 4.49077 19.9051 3.71364 19.5613C3.68662 19.5495 3.6596 19.5377 3.63175 19.5256C2.38865 18.9731 1.40943 17.9095 0.910171 16.6423C0.875039 16.5484 0.841711 16.4542 0.809327 16.3594C0.795046 16.318 0.795046 16.318 0.780476 16.2759C0.568092 15.6149 0.556288 14.9682 0.557711 14.2802C0.557475 14.1766 0.557187 14.073 0.556852 13.9694C0.556191 13.7186 0.556106 13.4678 0.556323 13.217C0.556491 13.0128 0.55643 12.8087 0.55621 12.6045C0.556179 12.5753 0.556148 12.5461 0.556116 12.516C0.556053 12.4566 0.55599 12.3972 0.555926 12.3378C0.55536 11.7827 0.555582 11.2276 0.556057 10.6724C0.556467 10.1664 0.555933 9.66044 0.554944 9.15444C0.553933 8.63283 0.553541 8.11122 0.553815 7.58961C0.553958 7.29759 0.553872 7.00557 0.553144 6.71354C0.552466 6.43871 0.552673 6.16389 0.553446 5.88905C0.553597 5.78882 0.553473 5.68859 0.553037 5.58835C0.550083 4.85189 0.600842 4.13012 0.871286 3.43738C0.883462 3.40535 0.895639 3.37331 0.908185 3.34031C1.41941 2.0428 2.44479 0.991763 3.70973 0.427963C3.86062 0.364225 4.01327 0.30722 4.168 0.253671C4.20905 0.239293 4.20905 0.239293 4.25092 0.224625C4.86953 0.023176 5.47337 -0.00101912 6.11716 0.00102434ZM5.41958 1.38464C5.39021 1.38785 5.36085 1.39105 5.3306 1.39435C4.53553 1.49125 3.80444 1.83977 3.21797 2.38741C3.16534 2.43541 3.16534 2.43541 3.11164 2.48438C2.31842 3.24135 1.93921 4.25407 1.89619 5.33981C1.88902 5.64372 1.89052 5.94775 1.89084 6.25172C1.89078 6.34263 1.89071 6.43354 1.89062 6.52445C1.89043 6.76982 1.89051 7.01519 1.89064 7.26057C1.89074 7.51825 1.89064 7.77593 1.89058 8.0336C1.8905 8.4662 1.8906 8.8988 1.8908 9.33139C1.89103 9.83041 1.89095 10.3294 1.89073 10.8284C1.89054 11.2581 1.89051 11.6877 1.89062 12.1174C1.89068 12.3735 1.89069 12.6296 1.89056 12.8857C1.89044 13.1265 1.89052 13.3673 1.89076 13.6082C1.89081 13.6962 1.8908 13.7842 1.89071 13.8722C1.88986 14.7639 1.91989 15.5803 2.30924 16.4009C2.32745 16.4393 2.34566 16.4777 2.36443 16.5172C2.81841 17.4111 3.64963 18.1132 4.59381 18.4288C4.69413 18.4599 4.79475 18.4888 4.89602 18.5165C4.92654 18.5249 4.95705 18.5334 4.98849 18.5421C5.5525 18.6851 6.14931 18.6526 6.72633 18.6525C6.81717 18.6526 6.90802 18.6527 6.99886 18.6529C7.24432 18.6533 7.48977 18.6534 7.73523 18.6534C7.88894 18.6534 8.04266 18.6535 8.19638 18.6536C8.70602 18.654 9.21566 18.6542 9.72531 18.6541C9.76638 18.6541 9.76638 18.6541 9.80829 18.6541C9.84942 18.6541 9.84942 18.6541 9.89138 18.6541C10.3353 18.6541 10.7792 18.6545 11.2232 18.6551C11.6807 18.6557 12.1382 18.656 12.5958 18.656C12.852 18.6559 13.1081 18.6561 13.3643 18.6565C13.6055 18.6569 13.8466 18.6569 14.0878 18.6566C14.1757 18.6566 14.2637 18.6567 14.3516 18.6569C15.6199 18.6603 16.7891 18.513 17.7576 17.6069C17.8117 17.5567 17.8117 17.5567 17.8668 17.5055C18.5376 16.8575 18.9492 16.0097 19.0429 15.0806C19.0464 15.0466 19.0499 15.0126 19.0534 14.9775C19.0903 14.5829 19.0907 14.1892 19.0894 13.7932C19.0895 13.7102 19.0896 13.6273 19.0897 13.5443C19.0899 13.3218 19.0896 13.0992 19.0891 12.8766C19.0888 12.6428 19.0888 12.409 19.0889 12.1752C19.0888 11.7833 19.0885 11.3915 19.0879 10.9997C19.0872 10.5469 19.087 10.094 19.0871 9.64118C19.0871 9.15784 19.0868 8.67451 19.0864 8.19118C19.0863 8.05219 19.0863 7.9132 19.0863 7.77421C19.0862 7.55624 19.086 7.33827 19.0856 7.1203C19.0855 7.04032 19.0854 6.96035 19.0854 6.88037C19.0854 6.77132 19.0852 6.66227 19.0849 6.55322C19.085 6.52151 19.085 6.48981 19.0851 6.45715C19.0844 6.30129 19.0753 6.15669 19.0381 6.00515C18.9823 6.00478 18.9823 6.00478 18.9254 6.00441C18.573 6.00199 18.2206 5.99898 17.8682 5.99534C17.687 5.99349 17.5059 5.99186 17.3248 5.99074C17.1496 5.98965 16.9745 5.98796 16.7993 5.98588C16.7329 5.9852 16.6664 5.98471 16.5999 5.98445C15.7871 5.98093 15.106 5.78458 14.5124 5.20207C14.1178 4.76339 13.8339 4.19549 13.8251 3.5949C13.8243 3.54497 13.8234 3.49503 13.8226 3.44357C13.8215 3.363 13.8215 3.363 13.8205 3.2808C13.8196 3.2251 13.8188 3.1694 13.8179 3.1137C13.8156 2.9674 13.8136 2.82111 13.8116 2.67482C13.8095 2.52541 13.8072 2.376 13.8049 2.2266C13.8005 1.93368 13.7963 1.64075 13.7923 1.34783C12.7657 1.34588 11.7391 1.34442 10.7125 1.34352C10.2358 1.34309 9.75906 1.34251 9.28234 1.34155C8.86653 1.34072 8.45073 1.34019 8.03493 1.34C7.81503 1.3399 7.59513 1.33964 7.37523 1.33904C7.16768 1.33846 6.96012 1.3383 6.75257 1.33842C6.67694 1.3384 6.60132 1.33824 6.5257 1.33791C6.15479 1.33641 5.78859 1.34428 5.41958 1.38464ZM15.114 1.97158C15.112 2.15863 15.1105 2.34568 15.1095 2.53274C15.1091 2.59617 15.1085 2.6596 15.1078 2.72303C15.1013 3.31136 15.1058 3.82947 15.5105 4.2926C15.87 4.63404 16.3349 4.68163 16.8074 4.67854C16.8418 4.67849 16.8763 4.67843 16.9117 4.67837C17.0207 4.67813 17.1297 4.67761 17.2387 4.67708C17.313 4.67687 17.3873 4.67668 17.4616 4.67651C17.6429 4.67606 17.8242 4.67534 18.0054 4.67448C17.9731 4.63492 17.9407 4.59536 17.9073 4.5546C17.8891 4.53234 17.8709 4.51009 17.8521 4.48716C17.7868 4.41082 17.7158 4.34645 17.6389 4.28204C17.5292 4.18794 17.4248 4.092 17.3239 3.98836C17.2243 3.8863 17.1218 3.79066 17.0141 3.69728C16.8807 3.58158 16.7566 3.45983 16.6333 3.33343C16.5563 3.25723 16.4763 3.18607 16.3945 3.11511C16.2611 2.99941 16.137 2.87767 16.0137 2.75126C15.9106 2.6493 15.8011 2.55558 15.6915 2.46083C15.5862 2.36635 15.489 2.26527 15.3924 2.16195C15.3067 2.08367 15.2136 2.03033 15.114 1.97158Z" fill="#E2EBF2"/>
<path d="M10.7356 6.33785C10.9269 6.42727 11.071 6.55348 11.1486 6.75368C11.1717 6.94965 11.1679 7.14503 11.1647 7.34202C11.1644 7.39946 11.1642 7.45691 11.164 7.51435C11.1634 7.6649 11.1618 7.81541 11.16 7.96595C11.1583 8.11981 11.1575 8.27369 11.1567 8.42756C11.1549 8.729 11.1521 9.03041 11.1486 9.33184C11.1801 9.33147 11.2117 9.3311 11.2442 9.33072C11.5419 9.32738 11.8397 9.32485 12.1375 9.32322C12.2906 9.32235 12.4436 9.32118 12.5967 9.31929C12.7446 9.31747 12.8924 9.31648 13.0402 9.31605C13.0965 9.31575 13.1528 9.31515 13.2091 9.31425C13.7545 9.30587 13.7545 9.30587 13.9574 9.49817C14.1073 9.65699 14.1354 9.78438 14.1433 9.99717C14.1333 10.2685 14.0593 10.3996 13.8639 10.5848C13.6479 10.725 13.3721 10.6827 13.1252 10.6787C13.0681 10.6784 13.011 10.6782 12.954 10.678C12.8044 10.6774 12.6549 10.6758 12.5054 10.6739C12.3525 10.6722 12.1997 10.6715 12.0468 10.6706C11.7474 10.6688 11.448 10.666 11.1486 10.6625C11.149 10.6942 11.1493 10.726 11.1497 10.7587C11.153 11.0585 11.1555 11.3582 11.1572 11.658C11.158 11.8121 11.1592 11.9662 11.1611 12.1203C11.1629 12.2692 11.1639 12.418 11.1643 12.5668C11.1646 12.6235 11.1652 12.6802 11.1661 12.7368C11.1744 13.2859 11.1744 13.2859 10.9834 13.4902C10.8256 13.641 10.6991 13.6694 10.4877 13.6773C10.2182 13.6672 10.088 13.5927 9.90399 13.396C9.76469 13.1785 9.80676 12.9009 9.81069 12.6523C9.811 12.5949 9.81123 12.5374 9.8114 12.48C9.81202 12.3294 9.81365 12.1789 9.81548 12.0284C9.81717 11.8745 9.81792 11.7206 9.81876 11.5668C9.82052 11.2653 9.82334 10.9639 9.82682 10.6625C9.79529 10.6629 9.76376 10.6632 9.73127 10.6636C9.43349 10.667 9.13573 10.6695 8.83794 10.6711C8.68486 10.672 8.53179 10.6732 8.37872 10.675C8.23088 10.6769 8.08306 10.6778 7.93521 10.6783C7.87892 10.6786 7.82263 10.6792 7.76635 10.6801C7.2209 10.6885 7.2209 10.6885 7.01803 10.4962C6.86816 10.3373 6.84 10.21 6.83215 9.99717C6.84216 9.72588 6.91612 9.59476 7.11155 9.40952C7.32757 9.26928 7.60338 9.31164 7.85028 9.31559C7.90734 9.3159 7.9644 9.31614 8.02147 9.31631C8.171 9.31694 8.32052 9.31857 8.47004 9.32041C8.62289 9.32212 8.77573 9.32288 8.92858 9.32371C9.22801 9.32549 9.52741 9.32833 9.82682 9.33184C9.82646 9.30009 9.82609 9.26834 9.82571 9.23564C9.8224 8.93586 9.81988 8.6361 9.81826 8.33631C9.8174 8.1822 9.81624 8.02811 9.81436 7.87401C9.81256 7.72518 9.81157 7.57636 9.81115 7.42751C9.81084 7.37085 9.81025 7.31418 9.80935 7.25752C9.80103 6.70841 9.80103 6.70841 9.99205 6.50418C10.2098 6.29594 10.4509 6.29927 10.7356 6.33785Z" fill="#E2EBF2"/>
</svg>
