<svg width="26" height="27" viewBox="0 0 26 27" fill="none" xmlns="http://www.w3.org/2000/svg">
<path d="M13.5746 13.5C14.5159 13.5 15.4187 13.1159 16.0843 12.4322C16.7499 11.7484 17.1238 10.8211 17.1238 9.85417C17.1238 8.88723 16.7499 7.9599 16.0843 7.27617C15.4187 6.59245 14.5159 6.20833 13.5746 6.20833C12.6333 6.20833 11.7305 6.59245 11.0649 7.27617C10.3993 7.9599 10.0253 8.88723 10.0253 9.85417C10.0253 10.8211 10.3993 11.7484 11.0649 12.4322C11.7305 13.1159 12.6333 13.5 13.5746 13.5ZM12.3074 14.8672C9.57614 14.8672 7.3634 17.1401 7.3634 19.9457C7.3634 20.4128 7.73219 20.7917 8.18694 20.7917H18.9622C19.417 20.7917 19.7858 20.4128 19.7858 19.9457C19.7858 17.1401 17.573 14.8672 14.8418 14.8672H12.3074Z" fill="#E2EBF2"/>
<path fill-rule="evenodd" clip-rule="evenodd" d="M13 1.5C6.37258 1.5 1 6.87258 1 13.5C1 20.1274 6.37258 25.5 13 25.5C19.6274 25.5 25 20.1274 25 13.5C25 6.87258 19.6274 1.5 13 1.5ZM0 13.5C0 6.3203 5.8203 0.5 13 0.5C20.1797 0.5 26 6.3203 26 13.5C26 20.6797 20.1797 26.5 13 26.5C5.8203 26.5 0 20.6797 0 13.5Z" fill="#E2EBF2"/>
</svg>
