<svg width="18" height="18" viewBox="0 0 18 18" fill="none" xmlns="http://www.w3.org/2000/svg">
<path d="M8.49699 4.79438C8.84142 4.79438 9.17811 4.89715 9.46449 5.0897C9.75087 5.28225 9.97408 5.55593 10.1059 5.87613C10.2377 6.19632 10.2722 6.54866 10.205 6.88858C10.1378 7.2285 9.97193 7.54074 9.72839 7.7858C9.48484 8.03087 9.17454 8.19777 8.83673 8.26538C8.49893 8.333 8.14878 8.29829 7.83057 8.16566C7.51236 8.03303 7.24038 7.80843 7.04903 7.52026C6.85768 7.23209 6.75554 6.8933 6.75554 6.54672C6.75554 6.08197 6.93902 5.63625 7.2656 5.30763C7.59219 4.979 8.03513 4.79438 8.49699 4.79438ZM8.49699 4.09344C8.0148 4.09344 7.54343 4.23733 7.1425 4.5069C6.74156 4.77646 6.42907 5.15961 6.24455 5.60789C6.06002 6.05617 6.01174 6.54944 6.10581 7.02533C6.19988 7.50121 6.43208 7.93834 6.77304 8.28144C7.11401 8.62454 7.54843 8.85819 8.02136 8.95285C8.49429 9.04751 8.9845 8.99892 9.42999 8.81324C9.87548 8.62756 10.2563 8.31312 10.5241 7.90968C10.792 7.50624 10.935 7.03193 10.935 6.54672C10.935 5.89607 10.6782 5.27207 10.2209 4.81199C9.76372 4.35191 9.1436 4.09344 8.49699 4.09344Z" fill="#E2EBF2" stroke="#E2EBF2" stroke-width="0.5"/>
<path d="M11.9798 13.9065H11.2833V12.1542C11.2833 11.6895 11.0998 11.2437 10.7732 10.9151C10.4466 10.5865 10.0037 10.4019 9.54181 10.4019H7.45207C6.99021 10.4019 6.54726 10.5865 6.22068 10.9151C5.89409 11.2437 5.71062 11.6895 5.71062 12.1542V13.9065H5.01404V12.1542C5.01404 11.5036 5.2709 10.8796 5.72812 10.4195C6.18534 9.9594 6.80546 9.70093 7.45207 9.70093H9.54181C10.1884 9.70093 10.8085 9.9594 11.2658 10.4195C11.723 10.8796 11.9798 11.5036 11.9798 12.1542V13.9065Z" fill="#E2EBF2" stroke="#E2EBF2" stroke-width="0.5"/>
<circle cx="9" cy="9" r="8.25" stroke="#E2EBF2" stroke-width="1.5"/>
</svg>
