<svg width="19" height="22" viewBox="0 0 19 22" fill="none" xmlns="http://www.w3.org/2000/svg">
<path d="M1.82994 17.144C1.50994 17.08 1.25927 16.9467 1.07794 16.744C0.896604 16.5307 0.805938 16.2747 0.805938 15.976C0.805938 15.7733 0.853938 15.56 0.949938 15.336L4.77394 6.136C4.90194 5.816 5.14727 5.656 5.50994 5.656C5.85127 5.656 6.09127 5.816 6.22994 6.136L10.0539 15.336C10.1499 15.56 10.1979 15.7733 10.1979 15.976C10.1979 16.264 10.1073 16.5147 9.92594 16.728C9.7446 16.9413 9.49394 17.08 9.17394 17.144L7.79794 13.8H3.20594L1.82994 17.144ZM7.33394 12.504L5.26994 7.272L5.14194 7.32L5.42994 8.056L3.66994 12.504H7.33394Z" fill="#838C95"/>
<path d="M12.3154 12.976C12.3154 12.68 12.3874 12.448 12.5314 12.28C12.6754 12.112 12.8794 12.028 13.1434 12.028H16.6834C16.6834 12.324 16.6114 12.556 16.4674 12.724C16.3234 12.892 16.1154 12.976 15.8434 12.976H12.3154Z" fill="#838C95"/>
</svg>
