<svg width="19" height="22" viewBox="0 0 19 22" fill="none" xmlns="http://www.w3.org/2000/svg">
<path d="M1.82994 17.144C1.50994 17.08 1.25927 16.9467 1.07794 16.744C0.896604 16.5307 0.805938 16.2747 0.805938 15.976C0.805938 15.7733 0.853938 15.56 0.949938 15.336L4.77394 6.136C4.90194 5.816 5.14727 5.656 5.50994 5.656C5.85127 5.656 6.09127 5.816 6.22994 6.136L10.0539 15.336C10.1499 15.56 10.1979 15.7733 10.1979 15.976C10.1979 16.264 10.1073 16.5147 9.92594 16.728C9.7446 16.9413 9.49394 17.08 9.17394 17.144L7.79794 13.8H3.20594L1.82994 17.144ZM7.33394 12.504L5.26994 7.272L5.14194 7.32L5.42994 8.056L3.66994 12.504H7.33394Z" fill="#838C95"/>
<path d="M13.9596 12.976H11.3076C11.3076 12.672 11.3756 12.436 11.5116 12.268C11.6556 12.1 11.8636 12.016 12.1356 12.016H13.9596V10.456C13.9596 10.144 14.0476 9.92 14.2236 9.784C14.4076 9.648 14.6836 9.58 15.0516 9.58V12.016H17.6916C17.6916 12.32 17.6196 12.556 17.4756 12.724C17.3396 12.892 17.1316 12.976 16.8516 12.976H15.0516V14.548C15.0516 15.132 14.6876 15.424 13.9596 15.424V12.976Z" fill="#838C95"/>
</svg>
