<svg width="1" height="2" viewBox="0 0 1 2" fill="none" xmlns="http://www.w3.org/2000/svg">
<path d="M0.0819048 2C0.0565079 2 0.0361905 1.98966 0.0209524 1.96897C0.00698413 1.94828 0 1.92008 0 1.88434C0 1.73954 0.0374603 1.60414 0.112381 1.47814C0.187302 1.35214 0.304762 1.22708 0.464762 1.10296C0.55619 1.0315 0.625397 0.970381 0.672381 0.919605C0.720635 0.866949 0.753651 0.815233 0.771429 0.764457C0.790476 0.711801 0.8 0.649741 0.8 0.578279C0.8 0.467325 0.775238 0.382699 0.725714 0.324401C0.67746 0.266103 0.606349 0.236954 0.512381 0.236954C0.410794 0.236954 0.331429 0.272685 0.274286 0.344147C0.218413 0.415609 0.190476 0.51528 0.190476 0.643159C0.190476 0.67701 0.192381 0.712741 0.19619 0.750353L0.173333 0.753173C0.127619 0.753173 0.0888889 0.733427 0.0571429 0.693935C0.0253968 0.654443 0.00952381 0.605548 0.00952381 0.54725C0.00952381 0.445698 0.031746 0.35355 0.0761905 0.270804C0.120635 0.186178 0.180952 0.120357 0.257143 0.0733428C0.334603 0.0244476 0.419683 0 0.512381 0C0.607619 0 0.690794 0.0235073 0.761905 0.070522C0.833016 0.117536 0.887619 0.185237 0.925714 0.273625C0.96381 0.360132 0.982857 0.461683 0.982857 0.578279C0.982857 0.711801 0.949841 0.832158 0.883809 0.939351C0.819048 1.04654 0.709206 1.16032 0.554286 1.28068C0.329524 1.45745 0.210794 1.62012 0.198095 1.76869H0.851429C0.899683 1.76869 0.936508 1.78843 0.961905 1.82793C0.987302 1.86742 1 1.92478 1 2H0.0819048Z" fill="white"/>
</svg>
