<svg width="1" height="2" viewBox="0 0 1 2" fill="none" xmlns="http://www.w3.org/2000/svg">
<path d="M0.49531 2C0.40025 2 0.315197 1.97772 0.24015 1.93315C0.165103 1.88858 0.106316 1.8273 0.0637899 1.7493C0.0212633 1.66945 0 1.57939 0 1.47911C0 1.40854 0.0137586 1.35747 0.0412758 1.32591C0.0700438 1.29248 0.113821 1.27669 0.172608 1.27855C0.170106 1.33055 0.168856 1.3649 0.168856 1.38162C0.168856 1.50604 0.196998 1.60167 0.253283 1.66852C0.309569 1.73352 0.390244 1.76602 0.49531 1.76602C0.712946 1.76602 0.821764 1.65552 0.821764 1.43454C0.821764 1.32498 0.796123 1.24141 0.744841 1.18384C0.693559 1.12442 0.619137 1.09471 0.521576 1.09471H0.45591C0.433396 1.09471 0.414634 1.08449 0.399625 1.06407C0.385866 1.04178 0.378987 1.01393 0.378987 0.980502C0.378987 0.945218 0.385866 0.917363 0.399625 0.896936C0.414634 0.876509 0.433396 0.866295 0.45591 0.866295H0.523452C0.603502 0.866295 0.666667 0.837512 0.712946 0.779944C0.760475 0.72052 0.78424 0.641597 0.78424 0.543176C0.78424 0.44104 0.760475 0.363974 0.712946 0.311978C0.666667 0.259982 0.597874 0.233983 0.506567 0.233983C0.409006 0.233983 0.333959 0.259982 0.281426 0.311978C0.230144 0.362117 0.204503 0.435469 0.204503 0.532034C0.204503 0.571031 0.207004 0.604457 0.212008 0.632312C0.159475 0.636026 0.116948 0.62117 0.0844278 0.587744C0.0519074 0.554318 0.0356473 0.507892 0.0356473 0.448468C0.0356473 0.363046 0.0556598 0.286908 0.0956848 0.220056C0.136961 0.151346 0.193246 0.0974931 0.26454 0.0584959C0.335835 0.0194986 0.41651 0 0.506567 0C0.597874 0 0.677924 0.0222841 0.746717 0.0668523C0.81676 0.111421 0.870544 0.174559 0.908068 0.256267C0.945591 0.337976 0.964353 0.433612 0.964353 0.543176C0.964353 0.734448 0.896185 0.879294 0.75985 0.977716C0.843652 1.02786 0.904315 1.08914 0.941839 1.16156C0.980613 1.23398 1 1.32498 1 1.43454C1 1.6091 0.954972 1.74745 0.864916 1.84958C0.774859 1.94986 0.651657 2 0.49531 2Z" fill="white"/>
</svg>
