<svg width="15" height="15" viewBox="0 0 15 15" fill="none" xmlns="http://www.w3.org/2000/svg">
<path fill-rule="evenodd" clip-rule="evenodd" d="M13.602 8.51593C13.6167 8.57682 13.6211 8.64949 13.6211 9.01956L13.6211 12.1044C13.6211 12.5019 13.6206 12.7585 13.6046 12.9538C13.5893 13.1411 13.5633 13.2106 13.546 13.2447C13.4799 13.3744 13.3744 13.4799 13.2447 13.5459C13.2106 13.5633 13.1411 13.5893 12.9538 13.6046C12.7585 13.6206 12.5019 13.6211 12.1044 13.6211L9.01956 13.6211C8.64949 13.6211 8.57682 13.6167 8.51593 13.602C8.44559 13.5852 8.37834 13.5573 8.31666 13.5195C8.26327 13.4868 8.20875 13.4385 7.94707 13.1769L2.66018 7.88996C2.2426 7.47238 1.95912 7.18814 1.75763 6.9508C1.56137 6.71961 1.48372 6.57866 1.44632 6.46357C1.35634 6.18664 1.35634 5.88833 1.44632 5.6114C1.48372 5.49631 1.56137 5.35536 1.75763 5.12417C1.95912 4.88683 2.2426 4.60259 2.66018 4.18501L4.18501 2.66018C4.60259 2.2426 4.88683 1.95912 5.12418 1.75763C5.35536 1.56137 5.49631 1.48372 5.6114 1.44632C5.88833 1.35634 6.18664 1.35634 6.46357 1.44632C6.57866 1.48372 6.71961 1.56137 6.9508 1.75763C7.18814 1.95912 7.47238 2.2426 7.88996 2.66018L13.1769 7.94707C13.4385 8.20875 13.4868 8.26327 13.5195 8.31666C13.5573 8.37834 13.5852 8.44559 13.602 8.51593ZM15 8.96212C15.0002 8.6816 15.0005 8.43428 14.9428 8.19405C14.8921 7.98301 14.8086 7.78127 14.6952 7.59622C14.5661 7.38557 14.391 7.21085 14.1925 7.01267C14.179 6.99926 14.1655 6.98574 14.1518 6.97209L8.8448 1.66505C8.45239 1.27263 8.12853 0.948756 7.84315 0.706486C7.54674 0.454856 7.24681 0.251016 6.88966 0.13497C6.33579 -0.0449887 5.73918 -0.0449887 5.18532 0.13497C4.82817 0.251016 4.52823 0.454856 4.23182 0.706486C3.94644 0.948761 3.62257 1.27264 3.23015 1.66506L1.66505 3.23017C1.27263 3.62258 0.948758 3.94644 0.706486 4.23182C0.454856 4.52823 0.251016 4.82817 0.13497 5.18532C-0.0449885 5.73918 -0.0449885 6.33579 0.13497 6.88965C0.251016 7.2468 0.454856 7.54674 0.706486 7.84315C0.948763 8.12854 1.27265 8.45241 1.66508 8.84483L6.97209 14.1518C6.98573 14.1655 6.99926 14.179 7.01267 14.1925C7.21085 14.391 7.38557 14.5661 7.59622 14.6952C7.78127 14.8086 7.98301 14.8921 8.19405 14.9428C8.43428 15.0005 8.6816 15.0002 8.96212 15C8.98111 14.9999 9.00025 14.9999 9.01956 14.9999L12.1309 14.9999C12.4944 14.9999 12.8079 15 13.0661 14.9789C13.3387 14.9566 13.6098 14.9074 13.8706 14.7745C14.2598 14.5762 14.5762 14.2598 14.7745 13.8706C14.9074 13.6098 14.9566 13.3387 14.9789 13.0661C15 12.8079 14.9999 12.4944 14.9999 12.1309L14.9999 9.01956C14.9999 9.00025 14.9999 8.98111 15 8.96212ZM10.174 11.2081C10.7451 11.2081 11.2081 10.7451 11.2081 10.174C11.2081 9.60286 10.7451 9.13987 10.174 9.13987C9.60287 9.13987 9.13987 9.60286 9.13987 10.174C9.13987 10.7451 9.60287 11.2081 10.174 11.2081Z" fill="white"/>
</svg>
