<svg width="15" height="15" viewBox="0 0 15 15" fill="none" xmlns="http://www.w3.org/2000/svg">
<path fill-rule="evenodd" clip-rule="evenodd" d="M12.2561 0C12.5592 0 12.8049 0.245697 12.8049 0.548779V2.19512H14.4512C14.7543 2.19512 15 2.44081 15 2.7439C15 3.04698 14.7543 3.29267 14.4512 3.29267H12.8049V4.93901C12.8049 5.24209 12.5592 5.48779 12.2561 5.48779C11.953 5.48779 11.7073 5.24209 11.7073 4.93901V3.29267H10.061C9.75789 3.29267 9.5122 3.04698 9.5122 2.7439C9.5122 2.44081 9.75789 2.19512 10.061 2.19512H11.7073V0.548779C11.7073 0.245697 11.953 0 12.2561 0ZM4.03748 0.731705L7.5 0.731705C7.80308 0.731705 8.04878 0.977402 8.04878 1.28048C8.04878 1.58357 7.80308 1.82926 7.5 1.82926H4.06098C3.43723 1.82926 3.00242 1.82969 2.66391 1.85735C2.33181 1.88448 2.141 1.93507 1.99648 2.0087C1.6867 2.16654 1.43484 2.4184 1.277 2.72818C1.20336 2.8727 1.15278 3.06351 1.12565 3.39561C1.09799 3.73412 1.09756 4.16893 1.09756 4.79267V10.939C1.09756 11.5627 1.09799 11.9975 1.12565 12.3361C1.15278 12.6682 1.20336 12.859 1.277 13.0035C1.43484 13.3133 1.6867 13.5651 1.99648 13.723C2.03007 13.7401 2.06616 13.7559 2.10594 13.7706C2.16984 13.6189 2.27001 13.5047 2.33595 13.4334C2.44137 13.3193 2.58699 13.187 2.74649 13.042L8.96556 7.3883C9.08578 7.279 9.19755 7.17737 9.29852 7.09867C9.40849 7.01296 9.53624 6.92938 9.69575 6.87757C9.92666 6.80257 10.1741 6.79477 10.4093 6.85506C10.5718 6.89671 10.7045 6.97207 10.8197 7.05068C10.9254 7.12286 11.0434 7.21724 11.1702 7.31875L13.2304 8.96691C13.2444 8.97805 13.2581 8.98904 13.2717 8.99989C13.5083 9.18892 13.6942 9.33749 13.8389 9.52192C14.0198 9.75228 14.1481 10.0193 14.215 10.3044C14.2686 10.5327 14.2685 10.7707 14.2683 11.0735C14.2683 11.0909 14.2683 11.1085 14.2683 11.1263V11.1464C14.2683 11.2717 14.2683 11.391 14.2679 11.5047C14.2682 11.5112 14.2683 11.5178 14.2683 11.5244C14.2683 11.553 14.2683 11.5813 14.2683 11.6091C14.2685 12.2076 14.2686 12.616 14.1748 12.9662C14.0638 13.3805 13.8598 13.7551 13.5861 14.0667C13.4875 14.1789 13.3799 14.283 13.2644 14.3778C12.9674 14.6213 12.618 14.8037 12.2346 14.9065C11.8843 15.0003 11.4759 15.0002 10.8774 15C10.8496 15 10.8213 15 10.7927 15H10.4498C10.4382 15 10.4265 15 10.4147 15H4.03747C4.02385 15 4.01029 15 3.99678 15H3.50347C3.31052 15 3.1326 15 2.98642 14.9903C2.83878 14.9856 2.70177 14.9786 2.57454 14.9682C2.17456 14.9356 1.82324 14.8665 1.4982 14.7009C0.981899 14.4378 0.562135 14.0181 0.299068 13.5018C0.133453 13.1767 0.0644091 12.8254 0.0317296 12.4254C-9.67122e-06 12.037 -5.26736e-06 11.5572 1.40666e-07 10.9625V4.76918C-5.26736e-06 4.17442 -9.67122e-06 3.6947 0.0317296 3.30623C0.0644091 2.90626 0.133453 2.55494 0.299068 2.2299C0.562135 1.7136 0.981899 1.29384 1.4982 1.03077C1.82324 0.865158 2.17456 0.796114 2.57454 0.763435C2.96301 0.731695 3.44272 0.7317 4.03748 0.731705ZM12.8241 13.2667C12.91 13.1562 12.9821 13.0343 13.0381 12.9036C13.0923 12.7767 13.1299 12.6104 13.15 12.3242C13.1704 12.033 13.1707 11.6606 13.1707 11.1263C13.1707 10.746 13.1673 10.6439 13.1465 10.5553C13.1161 10.4257 13.0578 10.3043 12.9756 10.1996C12.9194 10.128 12.8418 10.0616 12.5448 9.82396L10.498 8.18655C10.3531 8.07061 10.268 8.00298 10.2009 7.95717C10.1598 7.92916 10.1405 7.92005 10.1352 7.91786C10.1026 7.90978 10.0683 7.91086 10.0363 7.92098C10.0311 7.9235 10.0124 7.9338 9.97324 7.96435C9.90915 8.0143 9.82845 8.08716 9.69113 8.212L3.5017 13.8387C3.47772 13.8605 3.45501 13.8812 3.4335 13.9008C3.6193 13.9023 3.82683 13.9024 4.06098 13.9024H10.3946C10.9289 13.9024 11.3013 13.9021 11.5926 13.8816C11.8787 13.8615 12.045 13.824 12.1719 13.7697C12.3333 13.7007 12.4811 13.6069 12.6108 13.4931C12.6888 13.4246 12.7602 13.3487 12.8241 13.2667ZM10.0378 7.92031C10.0377 7.92035 10.037 7.92071 10.0363 7.92098L10.0378 7.92031ZM10.1337 7.91728C10.1337 7.91725 10.1344 7.91752 10.1352 7.91786L10.1337 7.91728ZM4.57317 4.39023C4.06803 4.39023 3.65854 4.79973 3.65854 5.30486C3.65854 5.81 4.06803 6.2195 4.57317 6.2195C5.07831 6.2195 5.48781 5.81 5.48781 5.30486C5.48781 4.79973 5.07831 4.39023 4.57317 4.39023ZM2.56098 5.30486C2.56098 4.19356 3.46187 3.29267 4.57317 3.29267C5.68448 3.29267 6.58537 4.19356 6.58537 5.30486C6.58537 6.41617 5.68448 7.31705 4.57317 7.31705C3.46187 7.31705 2.56098 6.41617 2.56098 5.30486Z" fill="#838C95"/>
</svg>
