<svg width="14" height="14" viewBox="0 0 14 14" fill="none" xmlns="http://www.w3.org/2000/svg">
<path fill-rule="evenodd" clip-rule="evenodd" d="M7 0.976744C3.67345 0.976744 0.976744 3.67345 0.976744 7C0.976744 8.81895 1.78302 10.4496 3.05767 11.554L8.53466 6.077C8.65322 5.95843 8.7621 5.84952 8.86057 5.76593C8.96672 5.67582 9.09244 5.58681 9.25252 5.5348C9.48138 5.46043 9.72792 5.46043 9.95679 5.5348C10.1169 5.58681 10.2426 5.67582 10.3487 5.76593C10.4472 5.84952 10.5561 5.95841 10.6746 6.07698L12.8853 8.28767C12.9757 7.87279 13.0233 7.44196 13.0233 7C13.0233 3.67345 10.3266 0.976744 7 0.976744ZM12.5532 9.33685L9.99603 6.77971C9.86139 6.64508 9.78092 6.56514 9.7166 6.51054C9.67735 6.47722 9.65819 6.46588 9.65283 6.46306C9.62145 6.45334 9.58785 6.45334 9.55647 6.46306C9.55112 6.46588 9.53195 6.47722 9.4927 6.51054C9.42838 6.56514 9.34791 6.64508 9.21328 6.77971L3.855 12.138C4.7704 12.6995 5.84739 13.0233 7 13.0233C9.49787 13.0233 11.6406 11.5028 12.5532 9.33685ZM2.80469 12.604C3.97381 13.4807 5.42626 14 7 14C10.866 14 14 10.866 14 7C14 3.13401 10.866 0 7 0C3.13401 0 0 3.13401 0 7C0 9.28796 1.09768 11.3195 2.79513 12.5969C2.7983 12.5993 2.80148 12.6017 2.80469 12.604ZM4.72093 3.90698C4.2714 3.90698 3.90698 4.2714 3.90698 4.72093C3.90698 5.17046 4.2714 5.53488 4.72093 5.53488C5.17046 5.53488 5.53488 5.17046 5.53488 4.72093C5.53488 4.2714 5.17046 3.90698 4.72093 3.90698ZM2.93023 4.72093C2.93023 3.73196 3.73196 2.93023 4.72093 2.93023C5.70991 2.93023 6.51163 3.73196 6.51163 4.72093C6.51163 5.70991 5.70991 6.51163 4.72093 6.51163C3.73196 6.51163 2.93023 5.70991 2.93023 4.72093Z" fill="#838C95"/>
</svg>
