<svg width="18" height="8" viewBox="0 0 18 8" fill="none" xmlns="http://www.w3.org/2000/svg">
<path fill-rule="evenodd" clip-rule="evenodd" d="M4.81395 1.04348C2.84885 1.04348 1.25581 2.36716 1.25581 4C1.25581 5.63284 2.84885 6.95652 4.81395 6.95652H6.48837C6.83516 6.95652 7.11628 7.19011 7.11628 7.47826C7.11628 7.76641 6.83516 8 6.48837 8H4.81395C2.15528 8 0 6.20914 0 4C0 1.79086 2.15528 0 4.81395 0H6.48837C6.83516 0 7.11628 0.233591 7.11628 0.521739C7.11628 0.809888 6.83516 1.04348 6.48837 1.04348H4.81395ZM10.8837 0.521739C10.8837 0.233591 11.1648 0 11.5116 0H13.186C15.8447 0 18 1.79086 18 4C18 6.20914 15.8447 8 13.186 8H11.5116C11.1648 8 10.8837 7.76641 10.8837 7.47826C10.8837 7.19011 11.1648 6.95652 11.5116 6.95652H13.186C15.1512 6.95652 16.7442 5.63284 16.7442 4C16.7442 2.36716 15.1512 1.04348 13.186 1.04348H11.5116C11.1648 1.04348 10.8837 0.809888 10.8837 0.521739ZM4.18605 4C4.18605 3.71185 4.46717 3.47826 4.81395 3.47826L13.186 3.47826C13.5328 3.47826 13.814 3.71185 13.814 4C13.814 4.28815 13.5328 4.52174 13.186 4.52174L4.81395 4.52174C4.46717 4.52174 4.18605 4.28815 4.18605 4Z" fill="#838C95"/>
</svg>
