<svg width="13" height="13" viewBox="0 0 13 13" fill="none" xmlns="http://www.w3.org/2000/svg">
<path fill-rule="evenodd" clip-rule="evenodd" d="M6.5 1.18182C3.56285 1.18182 1.18182 3.56285 1.18182 6.5C1.18182 9.43715 3.56285 11.8182 6.5 11.8182C9.43715 11.8182 11.8182 9.43715 11.8182 6.5C11.8182 3.56285 9.43715 1.18182 6.5 1.18182ZM0 6.5C0 2.91015 2.91015 0 6.5 0C10.0899 0 13 2.91015 13 6.5C13 10.0899 10.0899 13 6.5 13C2.91015 13 0 10.0899 0 6.5ZM6.5 3.54545C6.82635 3.54545 7.09091 3.81001 7.09091 4.13636V5.90909H8.86364C9.18999 5.90909 9.45455 6.17365 9.45455 6.5C9.45455 6.82635 9.18999 7.09091 8.86364 7.09091H7.09091V8.86364C7.09091 9.18999 6.82635 9.45455 6.5 9.45455C6.17365 9.45455 5.90909 9.18999 5.90909 8.86364V7.09091H4.13636C3.81001 7.09091 3.54545 6.82635 3.54545 6.5C3.54545 6.17365 3.81001 5.90909 4.13636 5.90909H5.90909V4.13636C5.90909 3.81001 6.17365 3.54545 6.5 3.54545Z" fill="white"/>
</svg>
