<svg width="31" height="15" viewBox="0 0 31 15" fill="none" xmlns="http://www.w3.org/2000/svg">
<path fill-rule="evenodd" clip-rule="evenodd" d="M11 3H1V12H11V3ZM0 2V13H12V2H0Z" fill="#838C95"/>
<path fill-rule="evenodd" clip-rule="evenodd" d="M18 1H13V0H18V1Z" fill="#838C95"/>
<path fill-rule="evenodd" clip-rule="evenodd" d="M15 14L15 1L16 1L16 14L15 14Z" fill="#838C95"/>
<path fill-rule="evenodd" clip-rule="evenodd" d="M18 15H13V14H18V15Z" fill="#838C95"/>
<path fill-rule="evenodd" clip-rule="evenodd" d="M18.5 1.5H31V2.5H19.5V12.5H31V13.5H18.5V1.5Z" fill="#838C95"/>
<path fill-rule="evenodd" clip-rule="evenodd" d="M31 5H22V4H31V5Z" fill="#838C95"/>
<path fill-rule="evenodd" clip-rule="evenodd" d="M31 8H22V7H31V8Z" fill="#838C95"/>
<path fill-rule="evenodd" clip-rule="evenodd" d="M31 11H22V10H31V11Z" fill="#838C95"/>
</svg>
