<svg width="15" height="15" viewBox="0 0 15 15" fill="none" xmlns="http://www.w3.org/2000/svg">
<path fill-rule="evenodd" clip-rule="evenodd" d="M11.6667 4.77273H3.33333V10.2273H11.6667V4.77273ZM2.5 4.16667V10.8333H12.5V4.16667H2.5Z" fill="#838C95"/>
<path fill-rule="evenodd" clip-rule="evenodd" d="M14 15L14 10.8333L15 10.8333L15 15L14 15Z" fill="#838C95"/>
<path fill-rule="evenodd" clip-rule="evenodd" d="M1.00006 12.5L14.0001 12.5L14.0001 13.3333L1.00006 13.3333L1.00006 12.5Z" fill="#838C95"/>
<path fill-rule="evenodd" clip-rule="evenodd" d="M-6.11577e-05 15L-6.09756e-05 10.8333L0.999939 10.8333L0.999939 15L-6.11577e-05 15Z" fill="#838C95"/>
<path fill-rule="evenodd" clip-rule="evenodd" d="M14 4.16667L14 5.52335e-07L15 5.96046e-07L15 4.16667L14 4.16667Z" fill="#838C95"/>
<path fill-rule="evenodd" clip-rule="evenodd" d="M1.00006 1.66667L14.0001 1.66667L14.0001 2.5L1.00006 2.5L1.00006 1.66667Z" fill="#838C95"/>
<path fill-rule="evenodd" clip-rule="evenodd" d="M-6.11577e-05 4.16667L-6.09756e-05 1.35103e-07L0.999939 1.78814e-07L0.999939 4.16667L-6.11577e-05 4.16667Z" fill="#838C95"/>
</svg>
