<svg width="7" height="9" viewBox="0 0 7 9" fill="none" xmlns="http://www.w3.org/2000/svg">
<path d="M3.056 8.288C2.13867 8.288 1.39733 8.04267 0.832 7.552C0.277333 7.06133 0 6.416 0 5.616C0 4.80533 0.293333 4.15467 0.88 3.664C1.46667 3.16267 2.24 2.912 3.2 2.912C4.224 2.912 5.06667 3.27467 5.728 4L5.792 3.936C5.67467 3.808 5.54133 3.67467 5.392 3.536V2.864C5.392 2.32 5.22133 1.89867 4.88 1.6C4.53867 1.30133 4.05333 1.152 3.424 1.152C2.304 1.152 1.504 1.59467 1.024 2.48C0.853333 2.39467 0.709333 2.28267 0.592 2.144C0.485333 1.99467 0.432 1.84533 0.432 1.696C0.432 1.408 0.576 1.136 0.864 0.88C1.152 0.613333 1.53067 0.4 2 0.24C2.48 0.0799999 2.98133 0 3.504 0C4.51733 0 5.312 0.250667 5.888 0.752C6.47467 1.25333 6.768 1.94667 6.768 2.832V7.216C6.768 7.58933 6.66133 7.86133 6.448 8.032C6.23467 8.20267 5.89867 8.288 5.44 8.288V7.536C5.664 7.30133 5.78667 7.16267 5.808 7.12L5.744 7.056C5.05067 7.87733 4.15467 8.288 3.056 8.288ZM3.296 7.184C3.95733 7.184 4.47467 7.04533 4.848 6.768C5.232 6.49067 5.424 6.10667 5.424 5.616C5.424 5.12533 5.23733 4.736 4.864 4.448C4.49067 4.16 3.97867 4.016 3.328 4.016C2.72 4.016 2.24 4.16 1.888 4.448C1.54667 4.72533 1.376 5.11467 1.376 5.616C1.376 6.11733 1.54133 6.50667 1.872 6.784C2.21333 7.05067 2.688 7.184 3.296 7.184Z" fill="#838C95"/>
</svg>
