<svg xmlns="http://www.w3.org/2000/svg" viewBox="0 0 15 14"><defs><style>.cls-1{fill:#13017c;}</style></defs><g id="Layer_2" data-name="Layer 2"><g id="Layer_1-2" data-name="Layer 1"><path class="cls-1" d="M8.86,7.45A2.42,2.42,0,0,0,7.33,7a2.19,2.19,0,0,0-1.44.43,1.42,1.42,0,0,0-.51,1.17,1.41,1.41,0,0,0,.49,1.16,2.25,2.25,0,0,0,1.43.4,2.55,2.55,0,0,0,1.55-.41,1.35,1.35,0,0,0,.57-1.15A1.39,1.39,0,0,0,8.86,7.45Z"/><path class="cls-1" d="M0,0V14H15V0ZM10.77,10.22a1,1,0,0,1-.32.81,1.63,1.63,0,0,1-1,.26v-.75a5,5,0,0,0,.37-.42l-.07-.06a3.35,3.35,0,0,1-2.68,1.23,3.3,3.3,0,0,1-2.23-.74A2.46,2.46,0,0,1,4,8.62a2.42,2.42,0,0,1,.88-2A3.46,3.46,0,0,1,7.2,5.91,3.26,3.26,0,0,1,9.73,7l.06-.06a5,5,0,0,0-.4-.4V5.86A1.59,1.59,0,0,0,8.88,4.6a2.14,2.14,0,0,0-1.46-.45A2.51,2.51,0,0,0,5,5.48a1.44,1.44,0,0,1-.43-.34.79.79,0,0,1-.16-.44,1.13,1.13,0,0,1,.43-.82A3.12,3.12,0,0,1,6,3.24,4.71,4.71,0,0,1,7.5,3a3.53,3.53,0,0,1,2.39.75,2.62,2.62,0,0,1,.88,2.08Z"/></g></g></svg>