<svg width="10" height="10" viewBox="0 0 10 10" fill="none" xmlns="http://www.w3.org/2000/svg">
<rect width="10" height="1" fill="#838C95"/>
<rect x="6" y="3" width="4" height="1" fill="#838C95"/>
<rect x="6" y="6" width="4" height="1" fill="#838C95"/>
<rect y="9" width="10" height="1" fill="#838C95"/>
<path d="M0 4.60001H4.16667V5.40001H0V4.60001Z" fill="#005BA1"/>
<path fill-rule="evenodd" clip-rule="evenodd" d="M1.80057 6.91632C1.62207 6.80474 1.48819 6.31158 1.66668 6.2L3.75002 5L1.66668 3.8C1.48819 3.68842 1.62207 3.19526 1.80057 3.08369C1.97906 2.97211 1.94526 2.9721 2.12376 3.08368L4.86615 4.79797C5.04464 4.90955 5.04464 5.09045 4.86615 5.20203L2.12376 6.91631C1.94526 7.02789 1.97906 7.0279 1.80057 6.91632Z" fill="#005BA1"/>
</svg>
