<svg width="13" height="10" viewBox="0 0 13 10" fill="none" xmlns="http://www.w3.org/2000/svg">
<path d="M6 5.25V7.625H7.58333C7.58333 8.49781 6.8736 9.20833 6 9.20833V10C7.30961 10 8.375 8.93461 8.375 7.625V5.25H6Z" fill="#838C95"/>
<path d="M9.95837 5.25V7.625H11.5417C11.5417 8.49781 10.832 9.20833 9.95837 9.20833V10C11.268 10 12.3334 8.93461 12.3334 7.625V5.25H9.95837Z" fill="#838C95"/>
<path d="M6 4.49997L6 2.24998L4.50001 2.24998C4.50001 1.42312 5.17238 0.749995 6 0.749995L6 -4.76837e-07C4.75932 -3.68374e-07 3.75001 1.00931 3.75001 2.24998L3.75002 4.49997L6 4.49997Z" fill="#838C95"/>
<path d="M2.25 4.49997L2.25 2.24998L0.75001 2.24998C0.75001 1.42312 1.42238 0.749995 2.25 0.749995L2.25 -4.76837e-07C1.00932 -3.68374e-07 1.47152e-05 1.00931 1.48237e-05 2.24998L1.50204e-05 4.49997L2.25 4.49997Z" fill="#838C95"/>
</svg>
