<svg width="10" height="10" viewBox="0 0 10 10" fill="none" xmlns="http://www.w3.org/2000/svg">
<rect width="10" height="1" fill="#838C95"/>
<rect y="3" width="4" height="1" fill="#838C95"/>
<rect y="6" width="4" height="1" fill="#838C95"/>
<rect y="9" width="10" height="1" fill="#838C95"/>
<path d="M10 5.39999L5.83333 5.39999L5.83333 4.59999L10 4.59999L10 5.39999Z" fill="#005BA1"/>
<path fill-rule="evenodd" clip-rule="evenodd" d="M8.19943 3.08368C8.37793 3.19526 8.51181 3.68842 8.33332 3.8L6.24998 5L8.33332 6.2C8.51181 6.31158 8.37793 6.80474 8.19944 6.91631C8.02094 7.02789 8.05474 7.0279 7.87624 6.91632L5.13385 5.20203C4.95536 5.09045 4.95536 4.90955 5.13385 4.79797L7.87624 3.08369C8.05474 2.97211 8.02094 2.9721 8.19943 3.08368Z" fill="#005BA1"/>
</svg>
