<svg width="18" height="13" viewBox="0 0 18 13" fill="none" xmlns="http://www.w3.org/2000/svg">
<path fill-rule="evenodd" clip-rule="evenodd" d="M4.61963 1.61237e-07H9.19432C9.87484 -6.03765e-06 10.4237 -1.10855e-05 10.8682 0.0363697C11.3259 0.0738281 11.7278 0.152968 12.0997 0.342802C12.6905 0.64434 13.1708 1.12549 13.4718 1.71729C13.6613 2.08986 13.7403 2.49256 13.7776 2.95103C13.814 3.3963 13.814 3.94617 13.814 4.6279V4.98138L15.803 2.98878C15.9665 2.82492 16.1178 2.67333 16.2484 2.56384C16.3679 2.46362 16.583 2.29645 16.8714 2.27371C17.2053 2.24738 17.5317 2.3828 17.7493 2.63799C17.9371 2.85836 17.9713 3.12896 17.985 3.28447C18 3.45436 18 3.66874 18 3.90045V9.09955C18 9.33126 18 9.54564 17.985 9.71553C17.9713 9.87104 17.9371 10.1416 17.7493 10.362C17.5317 10.6172 17.2053 10.7526 16.8714 10.7263C16.583 10.7036 16.3679 10.5364 16.2484 10.4362C16.1178 10.3267 15.9665 10.1751 15.803 10.0113L13.814 8.01862V8.3721C13.814 9.05383 13.814 9.6037 13.7776 10.049C13.7403 10.5074 13.6613 10.9101 13.4718 11.2827C13.1708 11.8745 12.6905 12.3557 12.0997 12.6572C11.7278 12.847 11.3259 12.9262 10.8682 12.9636C10.4237 13 9.87484 13 9.19434 13H4.61962C3.93911 13 3.39023 13 2.94575 12.9636C2.4881 12.9262 2.08612 12.847 1.71422 12.6572C1.12347 12.3557 0.643187 11.8745 0.342189 11.2827C0.152695 10.9101 0.073696 10.5074 0.0363046 10.049C-1.10657e-05 9.60369 -6.02684e-06 9.05382 1.60949e-07 8.37209V4.62791C-6.02684e-06 3.94618 -1.10657e-05 3.39631 0.0363046 2.95103C0.073696 2.49256 0.152695 2.08986 0.342189 1.71729C0.643187 1.12549 1.12347 0.64434 1.71422 0.342802C2.08612 0.152968 2.4881 0.0738281 2.94575 0.0363697C3.39023 -1.10855e-05 3.93912 -6.03765e-06 4.61963 1.61237e-07ZM12.5581 4.65484C12.5581 3.93988 12.5576 3.44149 12.526 3.05347C12.495 2.6728 12.4371 2.4541 12.3528 2.28844C12.1722 1.93336 11.8841 1.64467 11.5296 1.46375C11.3642 1.37934 11.1459 1.32136 10.7659 1.29026C10.3786 1.25855 9.88112 1.25806 9.16744 1.25806H4.64651C3.93283 1.25806 3.43533 1.25855 3.04801 1.29026C2.66802 1.32136 2.44971 1.37934 2.28434 1.46375C1.9299 1.64467 1.64173 1.93336 1.46113 2.28844C1.37687 2.4541 1.31899 2.6728 1.28795 3.05347C1.2563 3.44149 1.25581 3.93988 1.25581 4.65484V8.34516C1.25581 9.06012 1.2563 9.55851 1.28795 9.94653C1.31899 10.3272 1.37687 10.5459 1.46113 10.7116C1.64173 11.0666 1.9299 11.3553 2.28434 11.5363C2.44971 11.6207 2.66802 11.6786 3.04801 11.7097C3.43533 11.7414 3.93283 11.7419 4.64651 11.7419H9.16744C9.88112 11.7419 10.3786 11.7414 10.7659 11.7097C11.1459 11.6786 11.3642 11.6207 11.5296 11.5363C11.8841 11.3553 12.1722 11.0666 12.3528 10.7116C12.4371 10.5459 12.495 10.3272 12.526 9.94653C12.5576 9.55851 12.5581 9.06012 12.5581 8.34516V4.65484ZM14.074 6.5L16.6727 9.10334C16.6979 9.12852 16.7216 9.15231 16.7441 9.1748C16.7442 9.14296 16.7442 9.1093 16.7442 9.07369V3.92631C16.7442 3.8907 16.7442 3.85704 16.7441 3.8252C16.7216 3.84769 16.6979 3.87148 16.6727 3.89666L14.074 6.5Z" fill="#838C95"/>
</svg>
